<mxfile host="app.diagrams.net" modified="2023-02-06T21:55:38.616Z" agent="5.0 (Macintosh; Intel Mac OS X 10_15_7) AppleWebKit/537.36 (KHTML, like Gecko) Chrome/109.0.0.0 Safari/537.36" etag="3rsiMsV1OU8rsosQLhwB" version="16.5.6" type="github">
  <diagram name="Página 1" id="Página_1">
    <mxGraphModel dx="1466" dy="564" grid="1" gridSize="10" guides="1" tooltips="1" connect="1" arrows="1" fold="1" page="1" pageScale="1" pageWidth="827" pageHeight="1169" math="0" shadow="0">
      <root>
        <mxCell id="0" />
        <mxCell id="1" parent="0" />
        <mxCell id="2" style="vsdxID=1;fillColor=none;gradientColor=none;strokeColor=none;strokeWidth=0;spacingTop=-3;spacingBottom=-3;spacingLeft=-3;spacingRight=-3;labelBackgroundColor=none;rounded=0;html=1;whiteSpace=wrap;" parent="1" vertex="1">
          <mxGeometry x="1229" y="401" width="152" height="38" as="geometry" />
        </mxCell>
        <mxCell id="3" style="vsdxID=2;fillColor=#ffffff;gradientColor=none;shape=stencil(nZBLDoAgDAVP0z3SIyjeg0SURgWD+Lu9EGL8xBW7N828Ji1gOWs5KeBs9s72aqPGa8AKOCejlSMfEqAALFvrVOfsYprEk4xmTKNd44Y99VhscHY8qU7iQOYhFixbvfhXzlZfYgj3hQG+54dReh2KEw==);strokeColor=#000000;strokeWidth=0;spacingTop=-3;spacingBottom=-3;spacingLeft=-3;spacingRight=-3;labelBackgroundColor=none;rounded=0;html=1;whiteSpace=wrap;" parent="2" vertex="1">
          <mxGeometry width="152" height="38" as="geometry" />
        </mxCell>
        <mxCell id="4" value="&lt;div style=&quot;font-size: 1px&quot;&gt;&lt;p style=&quot;align:center;margin-left:0;margin-right:0;margin-top:0px;margin-bottom:0px;text-indent:0;valign:middle;direction:ltr;&quot;&gt;&lt;font style=&quot;font-size:14.11px;font-family:Arial;color:#333333;direction:ltr;letter-spacing:0px;line-height:100%;opacity:1&quot;&gt;1..N&lt;/font&gt;&lt;/p&gt;&lt;/div&gt;" style="text;vsdxID=1;fillColor=none;gradientColor=none;strokeColor=none;strokeWidth=0;spacingTop=-3;spacingBottom=-3;spacingLeft=-3;spacingRight=-3;labelBackgroundColor=none;rounded=0;html=1;whiteSpace=wrap;verticalAlign=middle;align=center;;html=1;" parent="2" vertex="1">
          <mxGeometry y="-0.1" width="152.4" height="38.1" as="geometry" />
        </mxCell>
        <mxCell id="5" style="vsdxID=3;fillColor=none;gradientColor=none;strokeColor=none;strokeWidth=0;spacingTop=-3;spacingBottom=-3;spacingLeft=-3;spacingRight=-3;labelBackgroundColor=none;rounded=0;html=1;whiteSpace=wrap;" parent="1" vertex="1">
          <mxGeometry x="1318" y="489" width="152" height="38" as="geometry" />
        </mxCell>
        <mxCell id="6" style="vsdxID=4;fillColor=#ffffff;gradientColor=none;shape=stencil(nZBLDoAgDAVP0z3SIyjeg0SURgWD+Lu9EGL8xBW7N828Ji1gOWs5KeBs9s72aqPGa8AKOCejlSMfEqAALFvrVOfsYprEk4xmTKNd44Y99VhscHY8qU7iQOYhFixbvfhXzlZfYgj3hQG+54dReh2KEw==);strokeColor=#000000;strokeWidth=0;spacingTop=-3;spacingBottom=-3;spacingLeft=-3;spacingRight=-3;labelBackgroundColor=none;rounded=0;html=1;whiteSpace=wrap;" parent="5" vertex="1">
          <mxGeometry width="152" height="38" as="geometry" />
        </mxCell>
        <mxCell id="7" value="&lt;div style=&quot;font-size: 1px&quot;&gt;&lt;p style=&quot;align:center;margin-left:0;margin-right:0;margin-top:0px;margin-bottom:0px;text-indent:0;valign:middle;direction:ltr;&quot;&gt;&lt;font style=&quot;font-size:14.11px;font-family:Arial;color:#333333;direction:ltr;letter-spacing:0px;line-height:100%;opacity:1&quot;&gt;HAS ROOMS&lt;/font&gt;&lt;/p&gt;&lt;/div&gt;" style="text;vsdxID=3;fillColor=none;gradientColor=none;strokeColor=none;strokeWidth=0;spacingTop=-3;spacingBottom=-3;spacingLeft=-3;spacingRight=-3;labelBackgroundColor=none;rounded=0;html=1;whiteSpace=wrap;verticalAlign=middle;align=center;;html=1;" parent="5" vertex="1">
          <mxGeometry y="-0.1" width="152.4" height="38.1" as="geometry" />
        </mxCell>
        <mxCell id="8" style="vsdxID=5;fillColor=none;gradientColor=none;strokeColor=none;strokeWidth=0;spacingTop=-3;spacingBottom=-3;spacingLeft=-3;spacingRight=-3;labelBackgroundColor=none;rounded=0;html=1;whiteSpace=wrap;" parent="1" vertex="1">
          <mxGeometry x="1216" y="583" width="152" height="38" as="geometry" />
        </mxCell>
        <mxCell id="9" style="vsdxID=6;fillColor=#ffffff;gradientColor=none;shape=stencil(nZBLDoAgDAVP0z3SIyjeg0SURgWD+Lu9EGL8xBW7N828Ji1gOWs5KeBs9s72aqPGa8AKOCejlSMfEqAALFvrVOfsYprEk4xmTKNd44Y99VhscHY8qU7iQOYhFixbvfhXzlZfYgj3hQG+54dReh2KEw==);strokeColor=#000000;strokeWidth=0;spacingTop=-3;spacingBottom=-3;spacingLeft=-3;spacingRight=-3;labelBackgroundColor=none;rounded=0;html=1;whiteSpace=wrap;" parent="8" vertex="1">
          <mxGeometry width="152" height="38" as="geometry" />
        </mxCell>
        <mxCell id="10" value="&lt;div style=&quot;font-size: 1px&quot;&gt;&lt;p style=&quot;margin-left: 0 ; margin-right: 0 ; margin-top: 0px ; margin-bottom: 0px ; text-indent: 0 ; direction: ltr&quot;&gt;&lt;font style=&quot;font-size: 14.11px ; font-family: &amp;#34;arial&amp;#34; ; color: #333333 ; direction: ltr ; letter-spacing: 0px ; line-height: 100% ; opacity: 1&quot;&gt;1..1&lt;/font&gt;&lt;/p&gt;&lt;/div&gt;" style="text;vsdxID=5;fillColor=none;gradientColor=none;strokeColor=none;strokeWidth=0;spacingTop=-3;spacingBottom=-3;spacingLeft=-3;spacingRight=-3;labelBackgroundColor=none;rounded=0;html=1;whiteSpace=wrap;verticalAlign=middle;align=center;;html=1;" parent="8" vertex="1">
          <mxGeometry y="-0.1" width="152.4" height="38.1" as="geometry" />
        </mxCell>
        <mxCell id="14" style="vsdxID=9;fillColor=none;gradientColor=none;strokeColor=none;strokeWidth=0;spacingTop=-3;spacingBottom=-3;spacingLeft=-3;spacingRight=-3;labelBackgroundColor=none;rounded=0;html=1;whiteSpace=wrap;" parent="1" vertex="1">
          <mxGeometry x="1356" y="269" width="152" height="38" as="geometry" />
        </mxCell>
        <mxCell id="15" style="vsdxID=10;fillColor=#ffffff;gradientColor=none;shape=stencil(nZBLDoAgDAVP0z3SIyjeg0SURgWD+Lu9EGL8xBW7N828Ji1gOWs5KeBs9s72aqPGa8AKOCejlSMfEqAALFvrVOfsYprEk4xmTKNd44Y99VhscHY8qU7iQOYhFixbvfhXzlZfYgj3hQG+54dReh2KEw==);strokeColor=#000000;strokeWidth=0;spacingTop=-3;spacingBottom=-3;spacingLeft=-3;spacingRight=-3;labelBackgroundColor=none;rounded=0;html=1;whiteSpace=wrap;" parent="14" vertex="1">
          <mxGeometry width="152" height="38" as="geometry" />
        </mxCell>
        <mxCell id="16" value="&lt;div style=&quot;font-size: 1px&quot;&gt;&lt;p style=&quot;align:center;margin-left:0;margin-right:0;margin-top:0px;margin-bottom:0px;text-indent:0;valign:middle;direction:ltr;&quot;&gt;&lt;font style=&quot;font-size:14.11px;font-family:Arial;color:#333333;direction:ltr;letter-spacing:0px;line-height:100%;opacity:1&quot;&gt;OWNS&lt;/font&gt;&lt;/p&gt;&lt;/div&gt;" style="text;vsdxID=9;fillColor=none;gradientColor=none;strokeColor=none;strokeWidth=0;spacingTop=-3;spacingBottom=-3;spacingLeft=-3;spacingRight=-3;labelBackgroundColor=none;rounded=0;html=1;whiteSpace=wrap;verticalAlign=middle;align=center;;html=1;" parent="14" vertex="1">
          <mxGeometry y="-0.1" width="152.4" height="38.1" as="geometry" />
        </mxCell>
        <mxCell id="17" style="vsdxID=11;fillColor=none;gradientColor=none;strokeColor=none;strokeWidth=2;spacingTop=-3;spacingBottom=-3;spacingLeft=-3;spacingRight=-3;labelBackgroundColor=none;rounded=1;html=1;whiteSpace=wrap;" parent="1" vertex="1">
          <mxGeometry x="1534" y="305" width="101" height="101" as="geometry" />
        </mxCell>
        <mxCell id="18" style="vsdxID=12;fillColor=#FFFFFF;gradientColor=none;shape=stencil(vVTLVsMgFPwaluHwiFXXtf6AX8BpbhOOGHIIWurXl/QmhmDiru5gZrjDABci932jOiCC9d7ZdzjryjdEvhAhdNuA0z6OiDwQuT9ZB7Wzn22F805FpWA3BCpcwwe1YMod3/Q3IMao5I8PSODKD/s1OIaRR+qCM0lH7StqY6nBJEwsL1HuLjkSsgJTxbF+KFTQfeGsV17bdsEZ5WooolVxMqpeUP0ZoEtgnm7O6DYJ8ryjYs16NUlJy6dlkhkZJZxtHM0/ZMm952wbaZjI00zI5un8eNw/zq9HMXmvphF0l93NjKw+2iTb/bP83S9xcGtMbFltDPZ1yueNHCH8BOThCg==);strokeColor=#5e5e5e;strokeWidth=2;spacingTop=-3;spacingBottom=-3;spacingLeft=-3;spacingRight=-3;labelBackgroundColor=none;rounded=1;html=1;whiteSpace=wrap;" parent="17" vertex="1">
          <mxGeometry width="101" height="101" as="geometry" />
        </mxCell>
        <mxCell id="19" value="&lt;div style=&quot;font-size: 1px&quot;&gt;&lt;p style=&quot;align:center;margin-left:0;margin-right:0;margin-top:0px;margin-bottom:0px;text-indent:0;valign:middle;direction:ltr;&quot;&gt;&lt;font style=&quot;font-size:14.11px;font-family:Arial;color:#333333;direction:ltr;letter-spacing:0px;line-height:100%;opacity:1&quot;&gt;COMPANY&lt;/font&gt;&lt;/p&gt;&lt;/div&gt;" style="text;vsdxID=11;fillColor=none;gradientColor=none;strokeColor=none;strokeWidth=2;spacingTop=-3;spacingBottom=-3;spacingLeft=-3;spacingRight=-3;labelBackgroundColor=none;rounded=1;html=1;whiteSpace=wrap;verticalAlign=middle;align=center;;html=1;" parent="17" vertex="1">
          <mxGeometry x="3.17" y="2.58" width="95.25" height="95.25" as="geometry" />
        </mxCell>
        <mxCell id="20" style="vsdxID=13;fillColor=none;gradientColor=none;strokeColor=none;strokeWidth=2;spacingTop=-3;spacingBottom=-3;spacingLeft=-3;spacingRight=-3;labelBackgroundColor=none;rounded=1;html=1;whiteSpace=wrap;" parent="1" vertex="1">
          <mxGeometry x="1229" y="305" width="101" height="101" as="geometry" />
        </mxCell>
        <mxCell id="21" style="vsdxID=14;fillColor=#FFFFFF;gradientColor=none;shape=stencil(vVTLVsMgFPwaluHwiFXXtf6AX8BpbhOOGHIIWurXl/QmhmDiru5gZrjDABci932jOiCC9d7ZdzjryjdEvhAhdNuA0z6OiDwQuT9ZB7Wzn22F805FpWA3BCpcwwe1YMod3/Q3IMao5I8PSODKD/s1OIaRR+qCM0lH7StqY6nBJEwsL1HuLjkSsgJTxbF+KFTQfeGsV17bdsEZ5WooolVxMqpeUP0ZoEtgnm7O6DYJ8ryjYs16NUlJy6dlkhkZJZxtHM0/ZMm952wbaZjI00zI5un8eNw/zq9HMXmvphF0l93NjKw+2iTb/bP83S9xcGtMbFltDPZ1yueNHCH8BOThCg==);strokeColor=#5e5e5e;strokeWidth=2;spacingTop=-3;spacingBottom=-3;spacingLeft=-3;spacingRight=-3;labelBackgroundColor=none;rounded=1;html=1;whiteSpace=wrap;" parent="20" vertex="1">
          <mxGeometry width="101" height="101" as="geometry" />
        </mxCell>
        <mxCell id="22" value="&lt;div style=&quot;font-size: 1px&quot;&gt;&lt;p style=&quot;align:center;margin-left:0;margin-right:0;margin-top:0px;margin-bottom:0px;text-indent:0;valign:middle;direction:ltr;&quot;&gt;&lt;font style=&quot;font-size:14.11px;font-family:Arial;color:#333333;direction:ltr;letter-spacing:0px;line-height:100%;opacity:1&quot;&gt;CENTER&lt;/font&gt;&lt;/p&gt;&lt;/div&gt;" style="text;vsdxID=13;fillColor=none;gradientColor=none;strokeColor=none;strokeWidth=2;spacingTop=-3;spacingBottom=-3;spacingLeft=-3;spacingRight=-3;labelBackgroundColor=none;rounded=1;html=1;whiteSpace=wrap;verticalAlign=middle;align=center;;html=1;" parent="20" vertex="1">
          <mxGeometry x="3.17" y="2.58" width="95.25" height="95.25" as="geometry" />
        </mxCell>
        <mxCell id="23" style="vsdxID=15;fillColor=none;gradientColor=none;strokeColor=none;strokeWidth=2;spacingTop=-3;spacingBottom=-3;spacingLeft=-3;spacingRight=-3;labelBackgroundColor=none;rounded=1;html=1;whiteSpace=wrap;" parent="1" vertex="1">
          <mxGeometry x="1381" y="305" width="101" height="101" as="geometry" />
        </mxCell>
        <mxCell id="24" style="vsdxID=16;fillColor=#FFFFFF;gradientColor=none;shape=stencil(vVTbcoMgEP0aHmWURUye0+QH8gVMJcrUioO2uXx9wTVThEn75huec9jdw+5K4DC2clCE5eNkzYe66npqCbwRxnTfKqsndyJwJHC4GKsaa776Gr8H6ZQsnxFV453Cq1ku7ftZPxRiOYWiKpHAm5/m22e8Ic8rCjuk74gwmosZOKHehfOJFj3QHaDc3mNkkZSMCh6HfEoyedNjZs0kJ236pUbkOmkblbl02aWTzYoar0oNAVyEBXa6DwztE0O8em2H031k5xcJAopVQGcQyq38+Ndkq/S+oOK1JaCMxx16IkHTRRKTb2UpceQf9I8mARXJzIl1k5KRcxa3m7n/l8gd5o3FXdZdhwsf8vGGOwj/DnD8AQ==);strokeColor=#5e5e5e;strokeWidth=2;spacingTop=-3;spacingBottom=-3;spacingLeft=-3;spacingRight=-3;labelBackgroundColor=none;rounded=1;html=1;whiteSpace=wrap;" parent="23" vertex="1">
          <mxGeometry width="101" height="101" as="geometry" />
        </mxCell>
        <mxCell id="25" style="vsdxID=17;fillColor=none;gradientColor=none;strokeColor=none;strokeWidth=2;spacingTop=-3;spacingBottom=-3;spacingLeft=-3;spacingRight=-3;labelBackgroundColor=none;rounded=1;html=1;whiteSpace=wrap;" parent="1" vertex="1">
          <mxGeometry x="1330" y="355" width="50" height="1" as="geometry" />
        </mxCell>
        <mxCell id="26" style="vsdxID=18;fillColor=#FFFFFF;gradientColor=none;shape=stencil(xZRdcoQgDMdPw6MZPhT0ebu9QE/AVFaZWnGQdrc9fdHojLitj9s3kvyT8CNGIk5jqwdDOB2Dd2/mauvQEvFEOLd9a7wN8UTEmYjTxXnTePfR12gPOio5nT2mxhw2qTnV/vXFfhv0URBMFRjAzHf3OXW8JTlfaBV0Np9RGQtNLRYlB8pR7Fe1gHIpvVaDskwK8jWe6ZsdM++CDtb1y90w1mnfmCw2yy6dbpLQeDVm2LjZ9nqd7TcglQQu094S5N84OcgdDouIlUx4KgWs/O2FHgGk9kBH08lBiB0OK4CpFOfujdTD5nP3aajD8VAo1I4n4vAEh0KV/9NwjtYmHubtnA1c7G1sv8nRhX8Bcf4B);strokeColor=#5e5e5e;strokeWidth=2;spacingTop=-3;spacingBottom=-3;spacingLeft=-3;spacingRight=-3;labelBackgroundColor=none;rounded=1;html=1;whiteSpace=wrap;" parent="25" vertex="1">
          <mxGeometry width="50" height="1" as="geometry" />
        </mxCell>
        <mxCell id="27" style="vsdxID=19;fillColor=none;gradientColor=none;strokeColor=none;strokeWidth=2;spacingTop=-3;spacingBottom=-3;spacingLeft=-3;spacingRight=-3;labelBackgroundColor=none;rounded=1;html=1;whiteSpace=wrap;" parent="1" vertex="1">
          <mxGeometry x="1483" y="353" width="50" height="1" as="geometry" />
        </mxCell>
        <mxCell id="28" style="vsdxID=20;fillColor=#FFFFFF;gradientColor=none;shape=stencil(xZRdcoQgDMdPw6MZPhT0ebu9QE/AVFaZWnGQdrc9fdHojLitj9s3kvyT8CNGIk5jqwdDOB2Dd2/mauvQEvFEOLd9a7wN8UTEmYjTxXnTePfR12gPOio5nT2mxhw2qTnV/vXFfhv0URBMFRjAzHf3OXW8JTlfaBV0Np9RGQtNLRYlB8pR7Fe1gHIpvVaDskwK8jWe6ZsdM++CDtb1y90w1mnfmCw2yy6dbpLQeDVm2LjZ9nqd7TcglQQu094S5N84OcgdDouIlUx4KgWs/O2FHgGk9kBH08lBiB0OK4CpFOfujdTD5nP3aajD8VAo1I4n4vAEh0KV/9NwjtYmHubtnA1c7G1sv8nRhX8Bcf4B);strokeColor=#5e5e5e;strokeWidth=2;spacingTop=-3;spacingBottom=-3;spacingLeft=-3;spacingRight=-3;labelBackgroundColor=none;rounded=1;html=1;whiteSpace=wrap;" parent="27" vertex="1">
          <mxGeometry width="50" height="1" as="geometry" />
        </mxCell>
        <mxCell id="29" style="vsdxID=21;fillColor=none;gradientColor=none;strokeColor=none;strokeWidth=2;spacingTop=-3;spacingBottom=-3;spacingLeft=-3;spacingRight=-3;labelBackgroundColor=none;rounded=1;html=1;whiteSpace=wrap;" parent="1" vertex="1">
          <mxGeometry x="1229" y="609" width="101" height="101" as="geometry" />
        </mxCell>
        <mxCell id="30" style="vsdxID=22;fillColor=#FFFFFF;gradientColor=none;shape=stencil(vVTLVsMgFPwaluHwiFXXtf6AX8BpbhOOGHIIWurXl/QmhmDiru5gZrjDABci932jOiCC9d7ZdzjryjdEvhAhdNuA0z6OiDwQuT9ZB7Wzn22F805FpWA3BCpcwwe1YMod3/Q3IMao5I8PSODKD/s1OIaRR+qCM0lH7StqY6nBJEwsL1HuLjkSsgJTxbF+KFTQfeGsV17bdsEZ5WooolVxMqpeUP0ZoEtgnm7O6DYJ8ryjYs16NUlJy6dlkhkZJZxtHM0/ZMm952wbaZjI00zI5un8eNw/zq9HMXmvphF0l93NjKw+2iTb/bP83S9xcGtMbFltDPZ1yueNHCH8BOThCg==);strokeColor=#5e5e5e;strokeWidth=2;spacingTop=-3;spacingBottom=-3;spacingLeft=-3;spacingRight=-3;labelBackgroundColor=none;rounded=1;html=1;whiteSpace=wrap;" parent="29" vertex="1">
          <mxGeometry width="101" height="101" as="geometry" />
        </mxCell>
        <mxCell id="31" value="&lt;div style=&quot;font-size: 1px&quot;&gt;&lt;p style=&quot;align:center;margin-left:0;margin-right:0;margin-top:0px;margin-bottom:0px;text-indent:0;valign:middle;direction:ltr;&quot;&gt;&lt;font style=&quot;font-size:14.11px;font-family:Arial;color:#333333;direction:ltr;letter-spacing:0px;line-height:100%;opacity:1&quot;&gt;Text&lt;/font&gt;&lt;/p&gt;&lt;/div&gt;" style="text;vsdxID=21;fillColor=none;gradientColor=none;strokeColor=none;strokeWidth=2;spacingTop=-3;spacingBottom=-3;spacingLeft=-3;spacingRight=-3;labelBackgroundColor=none;rounded=1;html=1;whiteSpace=wrap;verticalAlign=middle;align=center;;html=1;" parent="29" vertex="1">
          <mxGeometry x="3.17" y="2.58" width="95.25" height="95.25" as="geometry" />
        </mxCell>
        <mxCell id="32" style="vsdxID=23;fillColor=none;gradientColor=none;strokeColor=none;strokeWidth=2;spacingTop=-3;spacingBottom=-3;spacingLeft=-3;spacingRight=-3;labelBackgroundColor=none;rounded=1;html=1;whiteSpace=wrap;" parent="1" vertex="1">
          <mxGeometry x="1246" y="622" width="67" height="76" as="geometry" />
        </mxCell>
        <mxCell id="33" style="vsdxID=24;fillColor=#FFFFFF;gradientColor=none;shape=stencil(vZRNcoQgEIVPw1KKXy3Xk5kL5ARUZJQKEQtJxuT0QVstGSfuMjvo9+jnR9Eifuob1WnESB+8e9c3U4UG8RfEmGkb7U2IK8TPiJ+uzuvau8+2gn2nopORqaIrOENHNyPKv72aHw01gjktJAhw8sN9jYnDrIP0DTuBy2IqXMAbW40hw6IWAux+9VPwL+0kzvOk49x/yNRg+sy7oIJxbaJZ5WudxajsalWdSP1N625TptuPs6bdgJQCc/Eg+iFJvnoXEollSkLJH1fzBJb77FJiIo9odjA5S2D2l7NG/D/N7k3EbEz40Tub1RWIYykSoP398GfhHE9MXEyjCUNrrIXJ3ur3oxxL8Bvg518=);strokeColor=#5e5e5e;strokeWidth=2;spacingTop=-3;spacingBottom=-3;spacingLeft=-3;spacingRight=-3;labelBackgroundColor=none;rounded=1;html=1;whiteSpace=wrap;" parent="32" vertex="1">
          <mxGeometry width="67" height="76" as="geometry" />
        </mxCell>
        <mxCell id="34" value="&lt;div style=&quot;font-size: 1px&quot;&gt;&lt;p style=&quot;align:center;margin-left:0;margin-right:0;margin-top:0px;margin-bottom:0px;text-indent:0;valign:middle;direction:ltr;&quot;&gt;&lt;font style=&quot;font-size:14.11px;font-family:Arial;color:#333333;direction:ltr;letter-spacing:0px;line-height:100%;opacity:1&quot;&gt;ROOM&lt;/font&gt;&lt;/p&gt;&lt;/div&gt;" style="text;vsdxID=23;fillColor=none;gradientColor=none;strokeColor=none;strokeWidth=2;spacingTop=-3;spacingBottom=-3;spacingLeft=-3;spacingRight=-3;labelBackgroundColor=none;rounded=1;html=1;whiteSpace=wrap;verticalAlign=middle;align=center;;html=1;" parent="32" vertex="1">
          <mxGeometry x="3.18" y="2.55" width="60.96" height="70.49" as="geometry" />
        </mxCell>
        <mxCell id="35" style="vsdxID=25;fillColor=none;gradientColor=none;strokeColor=none;strokeWidth=2;spacingTop=-3;spacingBottom=-3;spacingLeft=-3;spacingRight=-3;labelBackgroundColor=none;rounded=1;html=1;whiteSpace=wrap;" parent="1" vertex="1">
          <mxGeometry x="1229" y="457" width="101" height="102" as="geometry" />
        </mxCell>
        <mxCell id="36" style="vsdxID=26;fillColor=#FFFFFF;gradientColor=none;shape=stencil(vZTRcoMgEEW/hkcZYVHjc5r+QL+AqUSZWnGQNqZfX3CZjoRp+tS84b2XXc7ASuC4DHJWhJeLs+ZNXXTnBgJPhHM9Dcpq51cETgSOZ2NVb83H1OH3LH2Sl5uiOtzDQpqX0r6+6C+FWkmBNRUauPPdfIaOK/qioXBA+4oKp3WzCc+Y9+VCo5gHeohxe/1RalRipPIVxG3JKKyFXPVSWOOk02aKZ0RvlLZXhW9XnEfZJ9ZyUWreyWx/wFFPO6A2AwqI8DuRoEKkRF5hCVGoWSc1A2P1KKTQjCft2/tIQFl2SSy9JJEh7SD/Hykjqu4/O05bSIm8kl5S9urEI4H+niO/2IYWx1mPI8783r8dci/hDwJO3w==);strokeColor=#5e5e5e;strokeWidth=2;spacingTop=-3;spacingBottom=-3;spacingLeft=-3;spacingRight=-3;labelBackgroundColor=none;rounded=1;html=1;whiteSpace=wrap;" parent="35" vertex="1">
          <mxGeometry width="101" height="102" as="geometry" />
        </mxCell>
        <mxCell id="37" style="vsdxID=27;fillColor=none;gradientColor=none;strokeColor=none;strokeWidth=2;spacingTop=-3;spacingBottom=-3;spacingLeft=-3;spacingRight=-3;labelBackgroundColor=none;rounded=1;html=1;whiteSpace=wrap;" parent="1" vertex="1">
          <mxGeometry x="1242" y="467" width="76" height="81" as="geometry" />
        </mxCell>
        <mxCell id="38" style="vsdxID=28;fillColor=#FFFFFF;gradientColor=none;shape=stencil(vZTdcoMgEIWfhksZZcGf6zR5gTwBU4kypeKgbX6evuBqK7GZXjV3es7hLN+MK4Hd0MpeEZYOo7Nv6qzrsSXwQhjTXaucHv0TgT2B3ck61Tj70dX43kufZOmkqBrPZCHNUulej/qmUEspZIVAA0++288w8YI+z6mo0L6iApTzSThg3teFQXNeUJFj3F0XhQEqS8Q3wH0lmyOJvOghcXaUo7bdfEf0jHSNSvy45GRkE1nDWal+JWfrCxrdrYCqDVBALB4T5bQoYqKcQh4RVd8NS6d4JlIYlkXjfyB/RQJaZDGSb6giJL5BCp3ls5A2RJ4RysdEnJYxEKci4tl8cyvA/8f5e4v8w7SyuMzaGNz4tX+/4l7C3wPsvwA=);strokeColor=#5e5e5e;strokeWidth=2;spacingTop=-3;spacingBottom=-3;spacingLeft=-3;spacingRight=-3;labelBackgroundColor=none;rounded=1;html=1;whiteSpace=wrap;" parent="37" vertex="1">
          <mxGeometry width="76" height="81" as="geometry" />
        </mxCell>
        <mxCell id="39" style="vsdxID=29;rotation=90;fillColor=none;gradientColor=none;strokeColor=none;strokeWidth=2;spacingTop=-3;spacingBottom=-3;spacingLeft=-3;spacingRight=-3;labelBackgroundColor=none;rounded=1;html=1;whiteSpace=wrap;" parent="1" vertex="1">
          <mxGeometry x="1256" y="431" width="49" height="1" as="geometry" />
        </mxCell>
        <mxCell id="40" style="vsdxID=30;rotation=90;fillColor=#FFFFFF;gradientColor=none;shape=stencil(vVTbcoQgDP0aHs1w8cbzdvcH+gVMZZWpFQdpd9uvLxp1xF6ffCM5JwknIRBxGhrVa8Lp4J191jdT+YaIB8K56RrtjA8nIs5EnK7W6drZ165Cu1eByenk0RXGsJHNqXJPj+ZDo4+CYEWGAEa+2Lex4n2OAcoRfUdHRifzguSQa6wykznQHMluYQso5+xrQhkn5AueqLsZEme98sZ28/UQa5WrdRKKJddW1RE03LTuN262vV5ruo0WWQKLS+eQ/6wmhYLFalhQKPNIjpRA0+8adIQeCez/w0kh3cthGbAilrNvUXHYdL48jOLX6VDIyp2cbG3Hylmmdfhs/tibcJg2dDJwubfYfpuDC38Ccf4E);strokeColor=#5e5e5e;strokeWidth=2;spacingTop=-3;spacingBottom=-3;spacingLeft=-3;spacingRight=-3;labelBackgroundColor=none;rounded=1;html=1;whiteSpace=wrap;" parent="39" vertex="1">
          <mxGeometry width="49" height="1" as="geometry" />
        </mxCell>
        <mxCell id="41" style="vsdxID=31;rotation=90;fillColor=none;gradientColor=none;strokeColor=none;strokeWidth=2;spacingTop=-3;spacingBottom=-3;spacingLeft=-3;spacingRight=-3;labelBackgroundColor=none;rounded=1;html=1;whiteSpace=wrap;" parent="1" vertex="1">
          <mxGeometry x="1256" y="583" width="49" height="1" as="geometry" />
        </mxCell>
        <mxCell id="42" style="vsdxID=32;rotation=90;fillColor=#FFFFFF;gradientColor=none;shape=stencil(vVTbcoQgDP0aHs1w8cbzdvcH+gVMZZWpFQdpd9uvLxp1xF6ffCM5JwknIRBxGhrVa8Lp4J191jdT+YaIB8K56RrtjA8nIs5EnK7W6drZ165Cu1eByenk0RXGsJHNqXJPj+ZDo4+CYEWGAEa+2Lex4n2OAcoRfUdHRifzguSQa6wykznQHMluYQso5+xrQhkn5AueqLsZEme98sZ28/UQa5WrdRKKJddW1RE03LTuN262vV5ruo0WWQKLS+eQ/6wmhYLFalhQKPNIjpRA0+8adIQeCez/w0kh3cthGbAilrNvUXHYdL48jOLX6VDIyp2cbG3Hylmmdfhs/tibcJg2dDJwubfYfpuDC38Ccf4E);strokeColor=#5e5e5e;strokeWidth=2;spacingTop=-3;spacingBottom=-3;spacingLeft=-3;spacingRight=-3;labelBackgroundColor=none;rounded=1;html=1;whiteSpace=wrap;" parent="41" vertex="1">
          <mxGeometry width="49" height="1" as="geometry" />
        </mxCell>
        <mxCell id="43" style="vsdxID=33;rotation=90;fillColor=none;gradientColor=none;strokeColor=none;strokeWidth=2;spacingTop=-3;spacingBottom=-3;spacingLeft=-3;spacingRight=-3;labelBackgroundColor=none;rounded=1;html=1;whiteSpace=wrap;" parent="1" vertex="1">
          <mxGeometry x="1256" y="278" width="50" height="1" as="geometry" />
        </mxCell>
        <mxCell id="44" style="vsdxID=34;rotation=90;fillColor=#FFFFFF;gradientColor=none;shape=stencil(xZRdcoQgDMdPw6MZPhT0ebu9QE/AVFaZWnGQdrc9fdHojLitj9s3kvyT8CNGIk5jqwdDOB2Dd2/mauvQEvFEOLd9a7wN8UTEmYjTxXnTePfR12gPOio5nT2mxhw2qTnV/vXFfhv0URBMFRjAzHf3OXW8JTlfaBV0Np9RGQtNLRYlB8pR7Fe1gHIpvVaDskwK8jWe6ZsdM++CDtb1y90w1mnfmCw2yy6dbpLQeDVm2LjZ9nqd7TcglQQu094S5N84OcgdDouIlUx4KgWs/O2FHgGk9kBH08lBiB0OK4CpFOfujdTD5nP3aajD8VAo1I4n4vAEh0KV/9NwjtYmHubtnA1c7G1sv8nRhX8Bcf4B);strokeColor=#5e5e5e;strokeWidth=2;spacingTop=-3;spacingBottom=-3;spacingLeft=-3;spacingRight=-3;labelBackgroundColor=none;rounded=1;html=1;whiteSpace=wrap;" parent="43" vertex="1">
          <mxGeometry width="50" height="1" as="geometry" />
        </mxCell>
        <mxCell id="45" style="vsdxID=35;fillColor=none;gradientColor=none;strokeColor=none;strokeWidth=2;spacingTop=-3;spacingBottom=-3;spacingLeft=-3;spacingRight=-3;labelBackgroundColor=none;rounded=1;html=1;whiteSpace=wrap;" parent="1" vertex="1">
          <mxGeometry x="1229" y="205" width="101" height="50" as="geometry" />
        </mxCell>
        <mxCell id="46" style="vsdxID=36;fillColor=#FFFFFF;gradientColor=none;shape=stencil(hVLtDoIwDHya/SWlDU5/Gj9ewCcgMmURnRmo4NM7KNFtYuRXe7ty1+YEreoyvyqBUDfWnNRDF00paC0Q9aVUVjeuErQRtDoYq47W3C4F99fcMREGRBU8k/ZshNzud/qpGIOEUpnxA0+ezb1XbMcZAH7suM+43TJ3f7NMTmP2CEiZzJChFj8QjSyMxloKVKCjkDDIwnJCGTGheaj9+esoA6Gq741CBn0vO6kabdubkAvvy0IDvsnQ06/F/xnwjxl6auPbdvjHJMUDv67g6iFeHDxdVZzOdypcEcfRQRxl2rwA);strokeColor=#5e5e5e;strokeWidth=2;spacingTop=-3;spacingBottom=-3;spacingLeft=-3;spacingRight=-3;labelBackgroundColor=none;rounded=1;html=1;whiteSpace=wrap;" parent="45" vertex="1">
          <mxGeometry width="101" height="50" as="geometry" />
        </mxCell>
        <mxCell id="47" value="&lt;div style=&quot;font-size: 1px&quot;&gt;&lt;p style=&quot;align:center;margin-left:0;margin-right:0;margin-top:0px;margin-bottom:0px;text-indent:0;valign:middle;direction:ltr;&quot;&gt;&lt;font style=&quot;font-size:14.11px;font-family:Arial;color:#333333;direction:ltr;letter-spacing:0px;line-height:100%;opacity:1&quot;&gt;NAME&lt;/font&gt;&lt;/p&gt;&lt;/div&gt;" style="text;vsdxID=35;fillColor=none;gradientColor=none;strokeColor=none;strokeWidth=2;spacingTop=-3;spacingBottom=-3;spacingLeft=-3;spacingRight=-3;labelBackgroundColor=none;rounded=1;html=1;whiteSpace=wrap;verticalAlign=middle;align=center;;html=1;" parent="45" vertex="1">
          <mxGeometry x="3.17" y="2.38" width="95.25" height="44.45" as="geometry" />
        </mxCell>
        <mxCell id="48" style="vsdxID=37;fillColor=none;gradientColor=none;strokeColor=none;strokeWidth=2;spacingTop=-3;spacingBottom=-3;spacingLeft=-3;spacingRight=-3;labelBackgroundColor=none;rounded=1;html=1;whiteSpace=wrap;" parent="1" vertex="1">
          <mxGeometry x="1257" y="241" width="44" height="1" as="geometry" />
        </mxCell>
        <mxCell id="49" style="vsdxID=38;fillColor=#FFFFFF;gradientColor=none;shape=stencil(xVRJcsMgEHwNR1EsBsTZsT/gF1ARlqgoQoVIbOf1QRrJJexsJ+fGTPcszTAgvh0a01vEyBCDf7EnV8UG8SfEmOsaG1xMJ8R3iG+PPtg6+LeuArs3icnI5LEVxNCRzYgJzwf3YcFHMKdKAACRr/59rHieYzDdAHoBhyCTuQdyyjVWmcksJQNyWNgcl3P2K4eKLCFb8MKc3VAEH010vpvbA6w1obZFKlYcW1Nn0HCytl+56bq91nUrLVpdm1lqSyy/l8OxVLmcUmCmMzm6xJp/dUGP0JNq6z8PJ7XOcjU0TXcjczl3V6QeNp67l6F+nA7BUtzoEZiyTA7FRP3TcH5ZnHSYVnQyYLvX2O06Jxd8BXz3CQ==);strokeColor=#5e5e5e;strokeWidth=2;spacingTop=-3;spacingBottom=-3;spacingLeft=-3;spacingRight=-3;labelBackgroundColor=none;rounded=1;html=1;whiteSpace=wrap;" parent="48" vertex="1">
          <mxGeometry width="44" height="1" as="geometry" />
        </mxCell>
        <mxCell id="50" style="vsdxID=39;fillColor=none;gradientColor=none;strokeColor=none;strokeWidth=2;spacingTop=-3;spacingBottom=-3;spacingLeft=-3;spacingRight=-3;labelBackgroundColor=none;rounded=1;html=1;whiteSpace=wrap;" parent="1" vertex="1">
          <mxGeometry x="1381" y="635" width="101" height="50" as="geometry" />
        </mxCell>
        <mxCell id="51" style="vsdxID=40;fillColor=#FFFFFF;gradientColor=none;shape=stencil(hVLtDoIwDHya/SWlDU5/Gj9ewCcgMmURnRmo4NM7KNFtYuRXe7ty1+YEreoyvyqBUDfWnNRDF00paC0Q9aVUVjeuErQRtDoYq47W3C4F99fcMREGRBU8k/ZshNzud/qpGIOEUpnxA0+ezb1XbMcZAH7suM+43TJ3f7NMTmP2CEiZzJChFj8QjSyMxloKVKCjkDDIwnJCGTGheaj9+esoA6Gq741CBn0vO6kabdubkAvvy0IDvsnQ06/F/xnwjxl6auPbdvjHJMUDv67g6iFeHDxdVZzOdypcEcfRQRxl2rwA);strokeColor=#5e5e5e;strokeWidth=2;spacingTop=-3;spacingBottom=-3;spacingLeft=-3;spacingRight=-3;labelBackgroundColor=none;rounded=1;html=1;whiteSpace=wrap;" parent="50" vertex="1">
          <mxGeometry width="101" height="50" as="geometry" />
        </mxCell>
        <mxCell id="52" value="&lt;div style=&quot;font-size: 1px&quot;&gt;&lt;p style=&quot;align:center;margin-left:0;margin-right:0;margin-top:0px;margin-bottom:0px;text-indent:0;valign:middle;direction:ltr;&quot;&gt;&lt;font style=&quot;font-size:14.11px;font-family:Arial;color:#333333;direction:ltr;letter-spacing:0px;line-height:100%;opacity:1&quot;&gt;RNR&lt;/font&gt;&lt;/p&gt;&lt;/div&gt;" style="text;vsdxID=39;fillColor=none;gradientColor=none;strokeColor=none;strokeWidth=2;spacingTop=-3;spacingBottom=-3;spacingLeft=-3;spacingRight=-3;labelBackgroundColor=none;rounded=1;html=1;whiteSpace=wrap;verticalAlign=middle;align=center;;html=1;" parent="50" vertex="1">
          <mxGeometry x="3.17" y="2.38" width="95.25" height="44.45" as="geometry" />
        </mxCell>
        <mxCell id="53" style="vsdxID=41;fillColor=none;gradientColor=none;strokeColor=none;strokeWidth=2;spacingTop=-3;spacingBottom=-3;spacingLeft=-3;spacingRight=-3;labelBackgroundColor=none;rounded=1;html=1;whiteSpace=wrap;" parent="1" vertex="1">
          <mxGeometry x="1330" y="658" width="50" height="1" as="geometry" />
        </mxCell>
        <mxCell id="54" style="vsdxID=42;fillColor=#FFFFFF;gradientColor=none;shape=stencil(xZRdcoQgDMdPw6MZPhT0ebu9QE/AVFaZWnGQdrc9fdHojLitj9s3kvyT8CNGIk5jqwdDOB2Dd2/mauvQEvFEOLd9a7wN8UTEmYjTxXnTePfR12gPOio5nT2mxhw2qTnV/vXFfhv0URBMFRjAzHf3OXW8JTlfaBV0Np9RGQtNLRYlB8pR7Fe1gHIpvVaDskwK8jWe6ZsdM++CDtb1y90w1mnfmCw2yy6dbpLQeDVm2LjZ9nqd7TcglQQu094S5N84OcgdDouIlUx4KgWs/O2FHgGk9kBH08lBiB0OK4CpFOfujdTD5nP3aajD8VAo1I4n4vAEh0KV/9NwjtYmHubtnA1c7G1sv8nRhX8Bcf4B);strokeColor=#5e5e5e;strokeWidth=2;spacingTop=-3;spacingBottom=-3;spacingLeft=-3;spacingRight=-3;labelBackgroundColor=none;rounded=1;html=1;whiteSpace=wrap;" parent="53" vertex="1">
          <mxGeometry width="50" height="1" as="geometry" />
        </mxCell>
        <mxCell id="55" style="vsdxID=43;fillColor=none;gradientColor=none;strokeColor=none;strokeWidth=2;spacingTop=-3;spacingBottom=-3;spacingLeft=-3;spacingRight=-3;labelBackgroundColor=none;rounded=1;html=1;whiteSpace=wrap;" parent="1" vertex="1">
          <mxGeometry x="1409" y="670" width="44" height="1" as="geometry" />
        </mxCell>
        <mxCell id="56" style="vsdxID=44;fillColor=#FFFFFF;gradientColor=none;shape=stencil(xVRJcsMgEHwNR1EsBsTZsT/gF1ARlqgoQoVIbOf1QRrJJexsJ+fGTPcszTAgvh0a01vEyBCDf7EnV8UG8SfEmOsaG1xMJ8R3iG+PPtg6+LeuArs3icnI5LEVxNCRzYgJzwf3YcFHMKdKAACRr/59rHieYzDdAHoBhyCTuQdyyjVWmcksJQNyWNgcl3P2K4eKLCFb8MKc3VAEH010vpvbA6w1obZFKlYcW1Nn0HCytl+56bq91nUrLVpdm1lqSyy/l8OxVLmcUmCmMzm6xJp/dUGP0JNq6z8PJ7XOcjU0TXcjczl3V6QeNp67l6F+nA7BUtzoEZiyTA7FRP3TcH5ZnHSYVnQyYLvX2O06Jxd8BXz3CQ==);strokeColor=#5e5e5e;strokeWidth=2;spacingTop=-3;spacingBottom=-3;spacingLeft=-3;spacingRight=-3;labelBackgroundColor=none;rounded=1;html=1;whiteSpace=wrap;" parent="55" vertex="1">
          <mxGeometry width="44" height="1" as="geometry" />
        </mxCell>
        <mxCell id="57" style="vsdxID=45;rotation=32;fillColor=none;gradientColor=none;strokeColor=none;strokeWidth=2;spacingTop=-3;spacingBottom=-3;spacingLeft=-3;spacingRight=-3;labelBackgroundColor=none;rounded=1;html=1;whiteSpace=wrap;" parent="1" vertex="1">
          <mxGeometry x="1327" y="724" width="50" height="1" as="geometry" />
        </mxCell>
        <mxCell id="58" style="vsdxID=46;rotation=32;fillColor=#FFFFFF;gradientColor=none;shape=stencil(xVTLcoMwDPwaH9H4EWM4p8kP9As8xQFPKWYMbdJ+fQ1yGHCT9pbeLO1K67UQROyHRveGcDqM3r2as63GhognwrntGuPtGE5EHIjYn5w3tXfvXYVxrwOT0zljKqxhE5tT7V+e7ZfBHAXBlEQAK9/cx6R4iTVAY9knJiSdwyOSQ69JJZI50B2S/ZUtoIjdl4blph+/wpm+2CHzbtSjdV28HWKt9rXJglZ2anW9gYazMf0qzda3a223slIqYIl2Dvl9NzvI1dYNCw7LfGOnLIDxWw/0CEMF3JS+40akbpgEprZufjyReth40g9D/TocCjK1I5dJLJxS/tNo/libcJgXdA5wt9dYuswhhT8CcfgG);strokeColor=#5e5e5e;strokeWidth=2;spacingTop=-3;spacingBottom=-3;spacingLeft=-3;spacingRight=-3;labelBackgroundColor=none;rounded=1;html=1;whiteSpace=wrap;" parent="57" vertex="1">
          <mxGeometry width="50" height="1" as="geometry" />
        </mxCell>
        <mxCell id="59" style="vsdxID=47;fillColor=none;gradientColor=none;strokeColor=none;strokeWidth=2;spacingTop=-3;spacingBottom=-3;spacingLeft=-3;spacingRight=-3;labelBackgroundColor=none;rounded=1;html=1;whiteSpace=wrap;" parent="1" vertex="1">
          <mxGeometry x="1375" y="711" width="101" height="50" as="geometry" />
        </mxCell>
        <mxCell id="60" style="vsdxID=48;fillColor=#FFFFFF;gradientColor=none;shape=stencil(hVLtDoIwDHya/SWlDU5/Gj9ewCcgMmURnRmo4NM7KNFtYuRXe7ty1+YEreoyvyqBUDfWnNRDF00paC0Q9aVUVjeuErQRtDoYq47W3C4F99fcMREGRBU8k/ZshNzud/qpGIOEUpnxA0+ezb1XbMcZAH7suM+43TJ3f7NMTmP2CEiZzJChFj8QjSyMxloKVKCjkDDIwnJCGTGheaj9+esoA6Gq741CBn0vO6kabdubkAvvy0IDvsnQ06/F/xnwjxl6auPbdvjHJMUDv67g6iFeHDxdVZzOdypcEcfRQRxl2rwA);strokeColor=#5e5e5e;strokeWidth=2;spacingTop=-3;spacingBottom=-3;spacingLeft=-3;spacingRight=-3;labelBackgroundColor=none;rounded=1;html=1;whiteSpace=wrap;" parent="59" vertex="1">
          <mxGeometry width="101" height="50" as="geometry" />
        </mxCell>
        <mxCell id="61" value="&lt;div style=&quot;font-size: 1px&quot;&gt;&lt;p style=&quot;align:center;margin-left:0;margin-right:0;margin-top:0px;margin-bottom:0px;text-indent:0;valign:middle;direction:ltr;&quot;&gt;&lt;font style=&quot;font-size:14.11px;font-family:Arial;color:#333333;direction:ltr;letter-spacing:0px;line-height:100%;opacity:1&quot;&gt;max capacity&lt;/font&gt;&lt;/p&gt;&lt;/div&gt;" style="text;vsdxID=47;fillColor=none;gradientColor=none;strokeColor=none;strokeWidth=2;spacingTop=-3;spacingBottom=-3;spacingLeft=-3;spacingRight=-3;labelBackgroundColor=none;rounded=1;html=1;whiteSpace=wrap;verticalAlign=middle;align=center;;html=1;" parent="59" vertex="1">
          <mxGeometry x="3.17" y="2.38" width="95.25" height="44.45" as="geometry" />
        </mxCell>
        <mxCell id="62" style="vsdxID=49;rotation=32;fillColor=none;gradientColor=none;strokeColor=none;strokeWidth=2;spacingTop=-3;spacingBottom=-3;spacingLeft=-3;spacingRight=-3;labelBackgroundColor=none;rounded=1;html=1;whiteSpace=wrap;" parent="1" vertex="1">
          <mxGeometry x="1181" y="292" width="50" height="1" as="geometry" />
        </mxCell>
        <mxCell id="63" style="vsdxID=50;rotation=32;fillColor=#FFFFFF;gradientColor=none;shape=stencil(xZRdcoQgDMdPw6MZPhT0ebu9QE/AVFaZWnGQdrc9fdHojLitj9s3kvyT8CNGIk5jqwdDOB2Dd2/mauvQEvFEOLd9a7wN8UTEmYjTxXnTePfR12gPOio5nT2mxhw2qTnV/vXFfhv0URBMFRjAzHf3OXW8JTlfaBV0Np9RGQtNLRYlB8pR7Fe1gHIpvVaDskwK8jWe6ZsdM++CDtb1y90w1mnfmCw2yy6dbpLQeDVm2LjZ9nqd7TcglQQu094S5N84OcgdDouIlUx4KgWs/O2FHgGk9kBH08lBiB0OK4CpFOfujdTD5nP3aajD8VAo1I4n4vAEh0KV/9NwjtYmHubtnA1c7G1sv8nRhX8Bcf4B);strokeColor=#5e5e5e;strokeWidth=2;spacingTop=-3;spacingBottom=-3;spacingLeft=-3;spacingRight=-3;labelBackgroundColor=none;rounded=1;html=1;whiteSpace=wrap;" parent="62" vertex="1">
          <mxGeometry width="50" height="1" as="geometry" />
        </mxCell>
        <mxCell id="64" style="vsdxID=51;fillColor=none;gradientColor=none;strokeColor=none;strokeWidth=2;spacingTop=-3;spacingBottom=-3;spacingLeft=-3;spacingRight=-3;labelBackgroundColor=none;rounded=1;html=1;whiteSpace=wrap;" parent="1" vertex="1">
          <mxGeometry x="1098" y="240" width="101" height="50" as="geometry" />
        </mxCell>
        <mxCell id="65" style="vsdxID=52;fillColor=#FFFFFF;gradientColor=none;shape=stencil(hVLtDoIwDHya/SWlDU5/Gj9ewCcgMmURnRmo4NM7KNFtYuRXe7ty1+YEreoyvyqBUDfWnNRDF00paC0Q9aVUVjeuErQRtDoYq47W3C4F99fcMREGRBU8k/ZshNzud/qpGIOEUpnxA0+ezb1XbMcZAH7suM+43TJ3f7NMTmP2CEiZzJChFj8QjSyMxloKVKCjkDDIwnJCGTGheaj9+esoA6Gq741CBn0vO6kabdubkAvvy0IDvsnQ06/F/xnwjxl6auPbdvjHJMUDv67g6iFeHDxdVZzOdypcEcfRQRxl2rwA);strokeColor=#5e5e5e;strokeWidth=2;spacingTop=-3;spacingBottom=-3;spacingLeft=-3;spacingRight=-3;labelBackgroundColor=none;rounded=1;html=1;whiteSpace=wrap;" parent="64" vertex="1">
          <mxGeometry width="101" height="50" as="geometry" />
        </mxCell>
        <mxCell id="66" value="&lt;div style=&quot;font-size: 1px&quot;&gt;&lt;p style=&quot;align:center;margin-left:0;margin-right:0;margin-top:0px;margin-bottom:0px;text-indent:0;valign:middle;direction:ltr;&quot;&gt;&lt;font style=&quot;font-size:14.11px;font-family:Arial;color:#333333;direction:ltr;letter-spacing:0px;line-height:100%;opacity:1&quot;&gt;address&lt;/font&gt;&lt;/p&gt;&lt;/div&gt;" style="text;vsdxID=51;fillColor=none;gradientColor=none;strokeColor=none;strokeWidth=2;spacingTop=-3;spacingBottom=-3;spacingLeft=-3;spacingRight=-3;labelBackgroundColor=none;rounded=1;html=1;whiteSpace=wrap;verticalAlign=middle;align=center;;html=1;" parent="64" vertex="1">
          <mxGeometry x="3.17" y="2.38" width="95.25" height="44.45" as="geometry" />
        </mxCell>
        <mxCell id="67" style="vsdxID=53;fillColor=none;gradientColor=none;fillOpacity=0;strokeOpacity=0;strokeWidth=2;spacingTop=-3;spacingBottom=-3;spacingLeft=-3;spacingRight=-3;labelBackgroundColor=none;rounded=1;strokeColor=none;html=1;whiteSpace=wrap;" parent="1" vertex="1">
          <mxGeometry x="1161" y="279" width="152" height="38" as="geometry" />
        </mxCell>
        <mxCell id="68" style="vsdxID=54;fillColor=#ffffff;gradientColor=none;fillOpacity=0;strokeOpacity=0;shape=stencil(vVPLbsMgEPwajkY8nMQ+p+kP5AtQvbFRqbEwTdx+fXGWRoY6uTU32Bl2mNUOkfuxUwMQwUbv7DtcdOM7Il+IELrvwGkfTkQeiNyfrIPW2c++wfugAlOwawUafMNntmDKvR31N2CNUcl3GwTw5Yc9z4pTxBH6ih3w+orM0GiWiExBWY1kF9kVlRVWbpRN0i42nwo16bFw1iuvbZ9gRrkWiqBUnIxqE2i8AAyLMl/+zeh+4aLerSrf8VFtUx+c01IkRjhbncsTnOTK9UMnZeakppVMjPwZzK3//1vJt+FX+t52lfl28W3iZXUwT/DxKCLhcE0iZlQbg0Fe4nlyQwlTLw8/);strokeWidth=2;spacingTop=-3;spacingBottom=-3;spacingLeft=-3;spacingRight=-3;labelBackgroundColor=none;rounded=1;html=1;whiteSpace=wrap;" parent="67" vertex="1">
          <mxGeometry width="152" height="38" as="geometry" />
        </mxCell>
        <mxCell id="69" value="&lt;div style=&quot;font-size: 1px&quot;&gt;&lt;p style=&quot;align:center;margin-left:0;margin-right:0;margin-top:0px;margin-bottom:0px;text-indent:0;valign:middle;direction:ltr;&quot;&gt;&lt;font style=&quot;font-size:14.11px;font-family:Arial;color:#333333;direction:ltr;letter-spacing:0px;line-height:100%;opacity:1&quot;&gt;1&lt;/font&gt;&lt;/p&gt;&lt;/div&gt;" style="text;vsdxID=53;fillColor=none;gradientColor=none;fillOpacity=0;strokeOpacity=0;strokeWidth=2;spacingTop=-3;spacingBottom=-3;spacingLeft=-3;spacingRight=-3;labelBackgroundColor=none;rounded=1;strokeColor=none;html=1;whiteSpace=wrap;verticalAlign=middle;align=center;;html=1;" parent="67" vertex="1">
          <mxGeometry x="3.17" y="3.08" width="146.05" height="31.75" as="geometry" />
        </mxCell>
        <mxCell id="70" style="vsdxID=55;fillColor=none;gradientColor=none;fillOpacity=0;strokeOpacity=0;strokeWidth=2;spacingTop=-3;spacingBottom=-3;spacingLeft=-3;spacingRight=-3;labelBackgroundColor=none;rounded=1;strokeColor=none;html=1;whiteSpace=wrap;" parent="1" vertex="1">
          <mxGeometry x="1127" y="260" width="152" height="38" as="geometry" />
        </mxCell>
        <mxCell id="71" style="vsdxID=56;fillColor=#ffffff;gradientColor=none;fillOpacity=0;strokeOpacity=0;shape=stencil(vVPLbsMgEPwajkY8nMQ+p+kP5AtQvbFRqbEwTdx+fXGWRoY6uTU32Bl2mNUOkfuxUwMQwUbv7DtcdOM7Il+IELrvwGkfTkQeiNyfrIPW2c++wfugAlOwawUafMNntmDKvR31N2CNUcl3GwTw5Yc9z4pTxBH6ih3w+orM0GiWiExBWY1kF9kVlRVWbpRN0i42nwo16bFw1iuvbZ9gRrkWiqBUnIxqE2i8AAyLMl/+zeh+4aLerSrf8VFtUx+c01IkRjhbncsTnOTK9UMnZeakppVMjPwZzK3//1vJt+FX+t52lfl28W3iZXUwT/DxKCLhcE0iZlQbg0Fe4nlyQwlTLw8/);strokeWidth=2;spacingTop=-3;spacingBottom=-3;spacingLeft=-3;spacingRight=-3;labelBackgroundColor=none;rounded=1;html=1;whiteSpace=wrap;" parent="70" vertex="1">
          <mxGeometry width="152" height="38" as="geometry" />
        </mxCell>
        <mxCell id="72" value="&lt;div style=&quot;font-size: 1px&quot;&gt;&lt;p style=&quot;align:center;margin-left:0;margin-right:0;margin-top:0px;margin-bottom:0px;text-indent:0;valign:middle;direction:ltr;&quot;&gt;&lt;font style=&quot;font-size:14.11px;font-family:Arial;color:#333333;direction:ltr;letter-spacing:0px;line-height:100%;opacity:1&quot;&gt;1&lt;/font&gt;&lt;/p&gt;&lt;/div&gt;" style="text;vsdxID=55;fillColor=none;gradientColor=none;fillOpacity=0;strokeOpacity=0;strokeWidth=2;spacingTop=-3;spacingBottom=-3;spacingLeft=-3;spacingRight=-3;labelBackgroundColor=none;rounded=1;strokeColor=none;html=1;whiteSpace=wrap;verticalAlign=middle;align=center;;html=1;" parent="70" vertex="1">
          <mxGeometry x="3.17" y="3.08" width="146.05" height="31.75" as="geometry" />
        </mxCell>
        <mxCell id="73" style="vsdxID=57;fillColor=none;gradientColor=none;fillOpacity=0;strokeOpacity=0;strokeWidth=2;spacingTop=-3;spacingBottom=-3;spacingLeft=-3;spacingRight=-3;labelBackgroundColor=none;rounded=1;strokeColor=none;html=1;whiteSpace=wrap;" parent="1" vertex="1">
          <mxGeometry x="1216" y="246" width="152" height="38" as="geometry" />
        </mxCell>
        <mxCell id="74" style="vsdxID=58;fillColor=#ffffff;gradientColor=none;fillOpacity=0;strokeOpacity=0;shape=stencil(vVPLbsMgEPwajkY8nMQ+p+kP5AtQvbFRqbEwTdx+fXGWRoY6uTU32Bl2mNUOkfuxUwMQwUbv7DtcdOM7Il+IELrvwGkfTkQeiNyfrIPW2c++wfugAlOwawUafMNntmDKvR31N2CNUcl3GwTw5Yc9z4pTxBH6ih3w+orM0GiWiExBWY1kF9kVlRVWbpRN0i42nwo16bFw1iuvbZ9gRrkWiqBUnIxqE2i8AAyLMl/+zeh+4aLerSrf8VFtUx+c01IkRjhbncsTnOTK9UMnZeakppVMjPwZzK3//1vJt+FX+t52lfl28W3iZXUwT/DxKCLhcE0iZlQbg0Fe4nlyQwlTLw8/);strokeWidth=2;spacingTop=-3;spacingBottom=-3;spacingLeft=-3;spacingRight=-3;labelBackgroundColor=none;rounded=1;html=1;whiteSpace=wrap;" parent="73" vertex="1">
          <mxGeometry width="152" height="38" as="geometry" />
        </mxCell>
        <mxCell id="75" value="&lt;div style=&quot;font-size: 1px&quot;&gt;&lt;p style=&quot;align:center;margin-left:0;margin-right:0;margin-top:0px;margin-bottom:0px;text-indent:0;valign:middle;direction:ltr;&quot;&gt;&lt;font style=&quot;font-size:14.11px;font-family:Arial;color:#333333;direction:ltr;letter-spacing:0px;line-height:100%;opacity:1&quot;&gt;1&lt;/font&gt;&lt;/p&gt;&lt;/div&gt;" style="text;vsdxID=57;fillColor=none;gradientColor=none;fillOpacity=0;strokeOpacity=0;strokeWidth=2;spacingTop=-3;spacingBottom=-3;spacingLeft=-3;spacingRight=-3;labelBackgroundColor=none;rounded=1;strokeColor=none;html=1;whiteSpace=wrap;verticalAlign=middle;align=center;;html=1;" parent="73" vertex="1">
          <mxGeometry x="3.17" y="3.08" width="146.05" height="31.75" as="geometry" />
        </mxCell>
        <mxCell id="76" style="vsdxID=59;fillColor=none;gradientColor=none;fillOpacity=0;strokeOpacity=0;strokeWidth=2;spacingTop=-3;spacingBottom=-3;spacingLeft=-3;spacingRight=-3;labelBackgroundColor=none;rounded=1;strokeColor=none;html=1;whiteSpace=wrap;" parent="1" vertex="1">
          <mxGeometry x="1216" y="279" width="152" height="38" as="geometry" />
        </mxCell>
        <mxCell id="77" style="vsdxID=60;fillColor=#ffffff;gradientColor=none;fillOpacity=0;strokeOpacity=0;shape=stencil(vVPLbsMgEPwajkY8nMQ+p+kP5AtQvbFRqbEwTdx+fXGWRoY6uTU32Bl2mNUOkfuxUwMQwUbv7DtcdOM7Il+IELrvwGkfTkQeiNyfrIPW2c++wfugAlOwawUafMNntmDKvR31N2CNUcl3GwTw5Yc9z4pTxBH6ih3w+orM0GiWiExBWY1kF9kVlRVWbpRN0i42nwo16bFw1iuvbZ9gRrkWiqBUnIxqE2i8AAyLMl/+zeh+4aLerSrf8VFtUx+c01IkRjhbncsTnOTK9UMnZeakppVMjPwZzK3//1vJt+FX+t52lfl28W3iZXUwT/DxKCLhcE0iZlQbg0Fe4nlyQwlTLw8/);strokeWidth=2;spacingTop=-3;spacingBottom=-3;spacingLeft=-3;spacingRight=-3;labelBackgroundColor=none;rounded=1;html=1;whiteSpace=wrap;" parent="76" vertex="1">
          <mxGeometry width="152" height="38" as="geometry" />
        </mxCell>
        <mxCell id="78" value="&lt;div style=&quot;font-size: 1px&quot;&gt;&lt;p style=&quot;align:center;margin-left:0;margin-right:0;margin-top:0px;margin-bottom:0px;text-indent:0;valign:middle;direction:ltr;&quot;&gt;&lt;font style=&quot;font-size:14.11px;font-family:Arial;color:#333333;direction:ltr;letter-spacing:0px;line-height:100%;opacity:1&quot;&gt;1&lt;/font&gt;&lt;/p&gt;&lt;/div&gt;" style="text;vsdxID=59;fillColor=none;gradientColor=none;fillOpacity=0;strokeOpacity=0;strokeWidth=2;spacingTop=-3;spacingBottom=-3;spacingLeft=-3;spacingRight=-3;labelBackgroundColor=none;rounded=1;strokeColor=none;html=1;whiteSpace=wrap;verticalAlign=middle;align=center;;html=1;" parent="76" vertex="1">
          <mxGeometry x="3.17" y="3.08" width="146.05" height="31.75" as="geometry" />
        </mxCell>
        <mxCell id="79" style="vsdxID=61;fillColor=none;gradientColor=none;strokeColor=none;strokeWidth=2;spacingTop=-3;spacingBottom=-3;spacingLeft=-3;spacingRight=-3;labelBackgroundColor=none;rounded=1;html=1;whiteSpace=wrap;" parent="1" vertex="1">
          <mxGeometry x="924" y="457" width="101" height="101" as="geometry" />
        </mxCell>
        <mxCell id="80" style="vsdxID=62;fillColor=#FFFFFF;gradientColor=none;shape=stencil(vVTLVsMgFPwaluHwiFXXtf6AX8BpbhOOGHIIWurXl/QmhmDiru5gZrjDABci932jOiCC9d7ZdzjryjdEvhAhdNuA0z6OiDwQuT9ZB7Wzn22F805FpWA3BCpcwwe1YMod3/Q3IMao5I8PSODKD/s1OIaRR+qCM0lH7StqY6nBJEwsL1HuLjkSsgJTxbF+KFTQfeGsV17bdsEZ5WooolVxMqpeUP0ZoEtgnm7O6DYJ8ryjYs16NUlJy6dlkhkZJZxtHM0/ZMm952wbaZjI00zI5un8eNw/zq9HMXmvphF0l93NjKw+2iTb/bP83S9xcGtMbFltDPZ1yueNHCH8BOThCg==);strokeColor=#5e5e5e;strokeWidth=2;spacingTop=-3;spacingBottom=-3;spacingLeft=-3;spacingRight=-3;labelBackgroundColor=none;rounded=1;html=1;whiteSpace=wrap;" parent="79" vertex="1">
          <mxGeometry width="101" height="101" as="geometry" />
        </mxCell>
        <mxCell id="81" value="&lt;div style=&quot;font-size: 1px&quot;&gt;&lt;p style=&quot;align:center;margin-left:0;margin-right:0;margin-top:0px;margin-bottom:0px;text-indent:0;valign:middle;direction:ltr;&quot;&gt;&lt;font style=&quot;font-size:14.11px;font-family:Arial;color:#333333;direction:ltr;letter-spacing:0px;line-height:100%;opacity:1&quot;&gt;PERSON&lt;/font&gt;&lt;/p&gt;&lt;/div&gt;" style="text;vsdxID=61;fillColor=none;gradientColor=none;strokeColor=none;strokeWidth=2;spacingTop=-3;spacingBottom=-3;spacingLeft=-3;spacingRight=-3;labelBackgroundColor=none;rounded=1;html=1;whiteSpace=wrap;verticalAlign=middle;align=center;;html=1;" parent="79" vertex="1">
          <mxGeometry x="3.17" y="2.58" width="95.25" height="95.25" as="geometry" />
        </mxCell>
        <mxCell id="82" style="vsdxID=63;rotation=-195;fillColor=none;gradientColor=none;strokeColor=none;strokeWidth=2;spacingTop=-3;spacingBottom=-3;spacingLeft=-3;spacingRight=-3;labelBackgroundColor=none;rounded=1;html=1;whiteSpace=wrap;" parent="1" vertex="1">
          <mxGeometry x="869.66" y="600.05" width="120.84" height="1.8399999999999999" as="geometry" />
        </mxCell>
        <mxCell id="83" style="vsdxID=64;rotation=-195;fillColor=#FFFFFF;gradientColor=none;shape=stencil(vZRBcoQgEEVPw1IKGhVdTyYXyAmoyCgVIxaSzCSnD9o6JaRqkpU76P/p9tG0RJymTo2aAJu8s2/6ahrfEfFEAMzQaWd8WBFxJuJ0sU63zn4MDe5HFZzAlohu8Ayf3cCUe30x3xpjjAouCxTw5Lv9nCveNr2sUP3CQMGW7TOaQ665ymrmVEg0u80taLVmv3tARglh0zN1M1PmrFfe2GEtj1qvXKuzUCy79KqNpOmq9bgL8/3n9WbYsdQ5LXlcu6TlI5y8SHAk5RFNXaQ46/0cgRNq1//uDdzZNxjOgOZ1jBNuKI9SysO68+thyIfNCQ+3SngKyiHCYSnNcc35Y27CYpnQZYPDvdfSaQ4h/BOI8w8=);strokeColor=#5e5e5e;strokeWidth=2;spacingTop=-3;spacingBottom=-3;spacingLeft=-3;spacingRight=-3;labelBackgroundColor=none;rounded=1;html=1;whiteSpace=wrap;" parent="82" vertex="1">
          <mxGeometry x="-3.83" y="0.84" width="124.67" height="1" as="geometry" />
        </mxCell>
        <mxCell id="84" style="vsdxID=65;fillColor=none;gradientColor=none;strokeColor=none;strokeWidth=2;spacingTop=-3;spacingBottom=-3;spacingLeft=-3;spacingRight=-3;labelBackgroundColor=none;rounded=1;html=1;whiteSpace=wrap;" parent="1" vertex="1">
          <mxGeometry x="1076" y="609" width="101" height="101" as="geometry" />
        </mxCell>
        <mxCell id="85" style="vsdxID=66;fillColor=#FFFFFF;gradientColor=none;shape=stencil(vVTLVsMgFPwaluHwiFXXtf6AX8BpbhOOGHIIWurXl/QmhmDiru5gZrjDABci932jOiCC9d7ZdzjryjdEvhAhdNuA0z6OiDwQuT9ZB7Wzn22F805FpWA3BCpcwwe1YMod3/Q3IMao5I8PSODKD/s1OIaRR+qCM0lH7StqY6nBJEwsL1HuLjkSsgJTxbF+KFTQfeGsV17bdsEZ5WooolVxMqpeUP0ZoEtgnm7O6DYJ8ryjYs16NUlJy6dlkhkZJZxtHM0/ZMm952wbaZjI00zI5un8eNw/zq9HMXmvphF0l93NjKw+2iTb/bP83S9xcGtMbFltDPZ1yueNHCH8BOThCg==);strokeColor=#5e5e5e;strokeWidth=2;spacingTop=-3;spacingBottom=-3;spacingLeft=-3;spacingRight=-3;labelBackgroundColor=none;rounded=1;html=1;whiteSpace=wrap;" parent="84" vertex="1">
          <mxGeometry width="101" height="101" as="geometry" />
        </mxCell>
        <mxCell id="86" value="&lt;div style=&quot;font-size: 1px&quot;&gt;&lt;p style=&quot;align:center;margin-left:0;margin-right:0;margin-top:0px;margin-bottom:0px;text-indent:0;valign:middle;direction:ltr;&quot;&gt;&lt;font style=&quot;font-size:14.11px;font-family:Arial;color:#333333;direction:ltr;letter-spacing:0px;line-height:100%;opacity:1&quot;&gt;CUSTOMER&lt;/font&gt;&lt;/p&gt;&lt;/div&gt;" style="text;vsdxID=65;fillColor=none;gradientColor=none;strokeColor=none;strokeWidth=2;spacingTop=-3;spacingBottom=-3;spacingLeft=-3;spacingRight=-3;labelBackgroundColor=none;rounded=1;html=1;whiteSpace=wrap;verticalAlign=middle;align=center;;html=1;" parent="84" vertex="1">
          <mxGeometry x="3.17" y="2.58" width="95.25" height="95.25" as="geometry" />
        </mxCell>
        <mxCell id="87" style="vsdxID=67;fillColor=none;gradientColor=none;strokeColor=none;strokeWidth=2;spacingTop=-3;spacingBottom=-3;spacingLeft=-3;spacingRight=-3;labelBackgroundColor=none;rounded=1;html=1;whiteSpace=wrap;" parent="1" vertex="1">
          <mxGeometry x="772" y="609" width="101" height="101" as="geometry" />
        </mxCell>
        <mxCell id="88" style="vsdxID=68;fillColor=#FFFFFF;gradientColor=none;shape=stencil(vVTLVsMgFPwaluHwiFXXtf6AX8BpbhOOGHIIWurXl/QmhmDiru5gZrjDABci932jOiCC9d7ZdzjryjdEvhAhdNuA0z6OiDwQuT9ZB7Wzn22F805FpWA3BCpcwwe1YMod3/Q3IMao5I8PSODKD/s1OIaRR+qCM0lH7StqY6nBJEwsL1HuLjkSsgJTxbF+KFTQfeGsV17bdsEZ5WooolVxMqpeUP0ZoEtgnm7O6DYJ8ryjYs16NUlJy6dlkhkZJZxtHM0/ZMm952wbaZjI00zI5un8eNw/zq9HMXmvphF0l93NjKw+2iTb/bP83S9xcGtMbFltDPZ1yueNHCH8BOThCg==);strokeColor=#5e5e5e;strokeWidth=2;spacingTop=-3;spacingBottom=-3;spacingLeft=-3;spacingRight=-3;labelBackgroundColor=none;rounded=1;html=1;whiteSpace=wrap;" parent="87" vertex="1">
          <mxGeometry width="101" height="101" as="geometry" />
        </mxCell>
        <mxCell id="89" value="&lt;div style=&quot;font-size: 1px&quot;&gt;&lt;p style=&quot;align:center;margin-left:0;margin-right:0;margin-top:0px;margin-bottom:0px;text-indent:0;valign:middle;direction:ltr;&quot;&gt;&lt;font style=&quot;font-size:14.11px;font-family:Arial;color:#333333;direction:ltr;letter-spacing:0px;line-height:100%;opacity:1&quot;&gt;TRAINER&lt;/font&gt;&lt;/p&gt;&lt;/div&gt;" style="text;vsdxID=67;fillColor=none;gradientColor=none;strokeColor=none;strokeWidth=2;spacingTop=-3;spacingBottom=-3;spacingLeft=-3;spacingRight=-3;labelBackgroundColor=none;rounded=1;html=1;whiteSpace=wrap;verticalAlign=middle;align=center;;html=1;" parent="87" vertex="1">
          <mxGeometry x="3.17" y="2.58" width="95.25" height="95.25" as="geometry" />
        </mxCell>
        <mxCell id="90" style="vsdxID=69;rotation=15;fillColor=none;gradientColor=none;strokeColor=none;strokeWidth=2;spacingTop=-3;spacingBottom=-3;spacingLeft=-3;spacingRight=-3;labelBackgroundColor=none;rounded=1;html=1;whiteSpace=wrap;" parent="1" vertex="1">
          <mxGeometry x="992.22" y="602.64" width="87.5" height="1" as="geometry" />
        </mxCell>
        <mxCell id="91" style="vsdxID=70;rotation=15;fillColor=#FFFFFF;gradientColor=none;shape=stencil(xVTLcoQgEPwajk4BgyLnze4P5AuoyCoVIxaa7CZfHxRNiXmeNjdmumeaZhwJHoZG94ZwOozePZqLrcaG4B3h3HaN8XYMJ4JHgoez86b27rmrYtzrwOR0zpgq1rCJzan2D/f2zcQcBWQyj0CsfHIvk+J1xeVS9hoTOZ3DUySHXpPKQmYgMJL9ykYol+4fHMSkIV/xTF/tkHk36tG6bpGPWKt9bbIglp1bXSfQcDGm36TZ9nqt7TZeVAmFSLULKL63g6Dy1A4TJShM/CgFKL56oVsYCtr5n6fDQfKdHcpBqNROeCOZtJQ3m8+nT0P+OB4KYmcnB8YTNxSK4p9m88vihMO8onMQt3uL7dc5pOKvAI/v);strokeColor=#5e5e5e;strokeWidth=2;spacingTop=-3;spacingBottom=-3;spacingLeft=-3;spacingRight=-3;labelBackgroundColor=none;rounded=1;html=1;whiteSpace=wrap;" parent="90" vertex="1">
          <mxGeometry y="-2" width="87.5" height="1" as="geometry" />
        </mxCell>
        <mxCell id="92" style="vsdxID=71;fillColor=none;gradientColor=none;strokeColor=none;strokeWidth=2;spacingTop=-3;spacingBottom=-3;spacingLeft=-3;spacingRight=-3;labelBackgroundColor=none;rounded=1;html=1;whiteSpace=wrap;" parent="1" vertex="1">
          <mxGeometry x="772" y="381" width="101" height="50" as="geometry" />
        </mxCell>
        <mxCell id="93" style="vsdxID=72;fillColor=#FFFFFF;gradientColor=none;shape=stencil(hVLtDoIwDHya/SWlDU5/Gj9ewCcgMmURnRmo4NM7KNFtYuRXe7ty1+YEreoyvyqBUDfWnNRDF00paC0Q9aVUVjeuErQRtDoYq47W3C4F99fcMREGRBU8k/ZshNzud/qpGIOEUpnxA0+ezb1XbMcZAH7suM+43TJ3f7NMTmP2CEiZzJChFj8QjSyMxloKVKCjkDDIwnJCGTGheaj9+esoA6Gq741CBn0vO6kabdubkAvvy0IDvsnQ06/F/xnwjxl6auPbdvjHJMUDv67g6iFeHDxdVZzOdypcEcfRQRxl2rwA);strokeColor=#5e5e5e;strokeWidth=2;spacingTop=-3;spacingBottom=-3;spacingLeft=-3;spacingRight=-3;labelBackgroundColor=none;rounded=1;html=1;whiteSpace=wrap;" parent="92" vertex="1">
          <mxGeometry width="101" height="50" as="geometry" />
        </mxCell>
        <mxCell id="94" value="&lt;div style=&quot;font-size: 1px&quot;&gt;&lt;p style=&quot;align:center;margin-left:0;margin-right:0;margin-top:0px;margin-bottom:0px;text-indent:0;valign:middle;direction:ltr;&quot;&gt;&lt;font style=&quot;font-size:14.11px;font-family:Arial;color:#333333;direction:ltr;letter-spacing:0px;line-height:100%;opacity:1&quot;&gt;first name&lt;/font&gt;&lt;/p&gt;&lt;/div&gt;" style="text;vsdxID=71;fillColor=none;gradientColor=none;strokeColor=none;strokeWidth=2;spacingTop=-3;spacingBottom=-3;spacingLeft=-3;spacingRight=-3;labelBackgroundColor=none;rounded=1;html=1;whiteSpace=wrap;verticalAlign=middle;align=center;;html=1;" parent="92" vertex="1">
          <mxGeometry x="3.17" y="2.38" width="95.25" height="44.45" as="geometry" />
        </mxCell>
        <mxCell id="95" style="vsdxID=73;rotation=45;fillColor=none;gradientColor=none;strokeColor=none;strokeWidth=2;spacingTop=-3;spacingBottom=-3;spacingLeft=-3;spacingRight=-3;labelBackgroundColor=none;rounded=1;html=1;whiteSpace=wrap;" parent="1" vertex="1">
          <mxGeometry x="860" y="435" width="71" height="1" as="geometry" />
        </mxCell>
        <mxCell id="96" style="vsdxID=74;rotation=45;fillColor=#FFFFFF;gradientColor=none;shape=stencil(xVTLcoQgEPwajk4BgyLnze4P5AuoyCoVIxaa7CZfHxRNiXmeNjdmumeaZhwJHoZG94ZwOozePZqLrcaG4B3h3HaN8XYMJ4JHgoez86b27rmrYtzrwOR0zpgq1rCJzan2D/f2zcQcBWQyj0CsfHIvk+J1xeVS9hoTOZ3DUySHXpPKQmYgMJL9ykYol+4fHMSkIV/xTF/tkHk36tG6bpGPWKt9bbIglp1bXSfQcDGm36TZ9nqt7TZeVAmFSLULKL63g6Dy1A4TJShM/CgFKL56oVsYCtr5n6fDQfKdHcpBqNROeCOZtJQ3m8+nT0P+OB4KYmcnB8YTNxSK4p9m88vihMO8onMQt3uL7dc5pOKvAI/v);strokeColor=#5e5e5e;strokeWidth=2;spacingTop=-3;spacingBottom=-3;spacingLeft=-3;spacingRight=-3;labelBackgroundColor=none;rounded=1;html=1;whiteSpace=wrap;" parent="95" vertex="1">
          <mxGeometry width="71" height="1" as="geometry" />
        </mxCell>
        <mxCell id="97" style="vsdxID=75;rotation=90;fillColor=none;gradientColor=none;strokeColor=none;strokeWidth=2;spacingTop=-3;spacingBottom=-3;spacingLeft=-3;spacingRight=-3;labelBackgroundColor=none;rounded=1;html=1;whiteSpace=wrap;" parent="1" vertex="1">
          <mxGeometry x="951" y="430" width="49" height="1" as="geometry" />
        </mxCell>
        <mxCell id="98" style="vsdxID=76;rotation=90;fillColor=#FFFFFF;gradientColor=none;shape=stencil(vVTbcoQgDP0aHs1w8cbzdvcH+gVMZZWpFQdpd9uvLxp1xF6ffCM5JwknIRBxGhrVa8Lp4J191jdT+YaIB8K56RrtjA8nIs5EnK7W6drZ165Cu1eByenk0RXGsJHNqXJPj+ZDo4+CYEWGAEa+2Lex4n2OAcoRfUdHRifzguSQa6wykznQHMluYQso5+xrQhkn5AueqLsZEme98sZ28/UQa5WrdRKKJddW1RE03LTuN262vV5ruo0WWQKLS+eQ/6wmhYLFalhQKPNIjpRA0+8adIQeCez/w0kh3cthGbAilrNvUXHYdL48jOLX6VDIyp2cbG3Hylmmdfhs/tibcJg2dDJwubfYfpuDC38Ccf4E);strokeColor=#5e5e5e;strokeWidth=2;spacingTop=-3;spacingBottom=-3;spacingLeft=-3;spacingRight=-3;labelBackgroundColor=none;rounded=1;html=1;whiteSpace=wrap;" parent="97" vertex="1">
          <mxGeometry width="49" height="1" as="geometry" />
        </mxCell>
        <mxCell id="99" style="vsdxID=77;fillColor=none;gradientColor=none;strokeColor=none;strokeWidth=2;spacingTop=-3;spacingBottom=-3;spacingLeft=-3;spacingRight=-3;labelBackgroundColor=none;rounded=1;html=1;whiteSpace=wrap;" parent="1" vertex="1">
          <mxGeometry x="924" y="353" width="101" height="50" as="geometry" />
        </mxCell>
        <mxCell id="100" style="vsdxID=78;fillColor=#FFFFFF;gradientColor=none;shape=stencil(hVLtDoIwDHya/SWlDU5/Gj9ewCcgMmURnRmo4NM7KNFtYuRXe7ty1+YEreoyvyqBUDfWnNRDF00paC0Q9aVUVjeuErQRtDoYq47W3C4F99fcMREGRBU8k/ZshNzud/qpGIOEUpnxA0+ezb1XbMcZAH7suM+43TJ3f7NMTmP2CEiZzJChFj8QjSyMxloKVKCjkDDIwnJCGTGheaj9+esoA6Gq741CBn0vO6kabdubkAvvy0IDvsnQ06/F/xnwjxl6auPbdvjHJMUDv67g6iFeHDxdVZzOdypcEcfRQRxl2rwA);strokeColor=#5e5e5e;strokeWidth=2;spacingTop=-3;spacingBottom=-3;spacingLeft=-3;spacingRight=-3;labelBackgroundColor=none;rounded=1;html=1;whiteSpace=wrap;" parent="99" vertex="1">
          <mxGeometry width="101" height="50" as="geometry" />
        </mxCell>
        <mxCell id="101" value="&lt;div style=&quot;font-size: 1px&quot;&gt;&lt;p style=&quot;align:center;margin-left:0;margin-right:0;margin-top:0px;margin-bottom:0px;text-indent:0;valign:middle;direction:ltr;&quot;&gt;&lt;font style=&quot;font-size:14.11px;font-family:Arial;color:#333333;direction:ltr;letter-spacing:0px;line-height:100%;opacity:1&quot;&gt;last name&lt;/font&gt;&lt;/p&gt;&lt;/div&gt;" style="text;vsdxID=77;fillColor=none;gradientColor=none;strokeColor=none;strokeWidth=2;spacingTop=-3;spacingBottom=-3;spacingLeft=-3;spacingRight=-3;labelBackgroundColor=none;rounded=1;html=1;whiteSpace=wrap;verticalAlign=middle;align=center;;html=1;" parent="99" vertex="1">
          <mxGeometry x="3.17" y="2.38" width="95.25" height="44.45" as="geometry" />
        </mxCell>
        <mxCell id="102" style="vsdxID=79;rotation=135;fillColor=none;gradientColor=none;strokeColor=none;strokeWidth=2;spacingTop=-3;spacingBottom=-3;spacingLeft=-3;spacingRight=-3;labelBackgroundColor=none;rounded=1;html=1;whiteSpace=wrap;" parent="1" vertex="1">
          <mxGeometry x="1015" y="431" width="75" height="1" as="geometry" />
        </mxCell>
        <mxCell id="103" style="vsdxID=80;rotation=135;fillColor=#FFFFFF;gradientColor=none;shape=stencil(vZRBcoQgEEVPw1IKGhVdTyYXyAmoyCgVIxaSzCSnD9o6JaRqkpU76P/p9tG0RJymTo2aAJu8s2/6ahrfEfFEAMzQaWd8WBFxJuJ0sU63zn4MDe5HFZzAlohu8Ayf3cCUe30x3xpjjAouCxTw5Lv9nCveNr2sUP3CQMGW7TOaQ665ymrmVEg0u80taLVmv3tARglh0zN1M1PmrFfe2GEtj1qvXKuzUCy79KqNpOmq9bgL8/3n9WbYsdQ5LXlcu6TlI5y8SHAk5RFNXaQ46/0cgRNq1//uDdzZNxjOgOZ1jBNuKI9SysO68+thyIfNCQ+3SngKyiHCYSnNcc35Y27CYpnQZYPDvdfSaQ4h/BOI8w8=);strokeColor=#5e5e5e;strokeWidth=2;spacingTop=-3;spacingBottom=-3;spacingLeft=-3;spacingRight=-3;labelBackgroundColor=none;rounded=1;html=1;whiteSpace=wrap;" parent="102" vertex="1">
          <mxGeometry width="75" height="1" as="geometry" />
        </mxCell>
        <mxCell id="104" style="vsdxID=81;fillColor=none;gradientColor=none;strokeColor=none;strokeWidth=2;spacingTop=-3;spacingBottom=-3;spacingLeft=-3;spacingRight=-3;labelBackgroundColor=none;rounded=1;html=1;whiteSpace=wrap;" parent="1" vertex="1">
          <mxGeometry x="1068" y="368" width="101" height="50" as="geometry" />
        </mxCell>
        <mxCell id="105" style="vsdxID=82;fillColor=#FFFFFF;gradientColor=none;shape=stencil(hVLtDoIwDHya/SWlDU5/Gj9ewCcgMmURnRmo4NM7KNFtYuRXe7ty1+YEreoyvyqBUDfWnNRDF00paC0Q9aVUVjeuErQRtDoYq47W3C4F99fcMREGRBU8k/ZshNzud/qpGIOEUpnxA0+ezb1XbMcZAH7suM+43TJ3f7NMTmP2CEiZzJChFj8QjSyMxloKVKCjkDDIwnJCGTGheaj9+esoA6Gq741CBn0vO6kabdubkAvvy0IDvsnQ06/F/xnwjxl6auPbdvjHJMUDv67g6iFeHDxdVZzOdypcEcfRQRxl2rwA);strokeColor=#5e5e5e;strokeWidth=2;spacingTop=-3;spacingBottom=-3;spacingLeft=-3;spacingRight=-3;labelBackgroundColor=none;rounded=1;html=1;whiteSpace=wrap;" parent="104" vertex="1">
          <mxGeometry width="101" height="50" as="geometry" />
        </mxCell>
        <mxCell id="106" value="&lt;div style=&quot;font-size: 1px&quot;&gt;&lt;p style=&quot;align:center;margin-left:0;margin-right:0;margin-top:0px;margin-bottom:0px;text-indent:0;valign:middle;direction:ltr;&quot;&gt;&lt;font style=&quot;font-size:14.11px;font-family:Arial;color:#333333;direction:ltr;letter-spacing:0px;line-height:100%;opacity:1&quot;&gt;date of birth&lt;/font&gt;&lt;/p&gt;&lt;/div&gt;" style="text;vsdxID=81;fillColor=none;gradientColor=none;strokeColor=none;strokeWidth=2;spacingTop=-3;spacingBottom=-3;spacingLeft=-3;spacingRight=-3;labelBackgroundColor=none;rounded=1;html=1;whiteSpace=wrap;verticalAlign=middle;align=center;;html=1;" parent="104" vertex="1">
          <mxGeometry x="3.17" y="2.38" width="95.25" height="44.45" as="geometry" />
        </mxCell>
        <mxCell id="107" style="vsdxID=83;fillColor=none;gradientColor=none;strokeColor=none;strokeWidth=2;spacingTop=-3;spacingBottom=-3;spacingLeft=-3;spacingRight=-3;labelBackgroundColor=none;rounded=1;html=1;whiteSpace=wrap;" parent="1" vertex="1">
          <mxGeometry x="721" y="660" width="50" height="1" as="geometry" />
        </mxCell>
        <mxCell id="108" style="vsdxID=84;fillColor=#FFFFFF;gradientColor=none;shape=stencil(xZRdcoQgDMdPw6MZPhT0ebu9QE/AVFaZWnGQdrc9fdHojLitj9s3kvyT8CNGIk5jqwdDOB2Dd2/mauvQEvFEOLd9a7wN8UTEmYjTxXnTePfR12gPOio5nT2mxhw2qTnV/vXFfhv0URBMFRjAzHf3OXW8JTlfaBV0Np9RGQtNLRYlB8pR7Fe1gHIpvVaDskwK8jWe6ZsdM++CDtb1y90w1mnfmCw2yy6dbpLQeDVm2LjZ9nqd7TcglQQu094S5N84OcgdDouIlUx4KgWs/O2FHgGk9kBH08lBiB0OK4CpFOfujdTD5nP3aajD8VAo1I4n4vAEh0KV/9NwjtYmHubtnA1c7G1sv8nRhX8Bcf4B);strokeColor=#5e5e5e;strokeWidth=2;spacingTop=-3;spacingBottom=-3;spacingLeft=-3;spacingRight=-3;labelBackgroundColor=none;rounded=1;html=1;whiteSpace=wrap;" parent="107" vertex="1">
          <mxGeometry width="50" height="1" as="geometry" />
        </mxCell>
        <mxCell id="109" style="vsdxID=85;fillColor=none;gradientColor=none;strokeColor=none;strokeWidth=2;spacingTop=-3;spacingBottom=-3;spacingLeft=-3;spacingRight=-3;labelBackgroundColor=none;rounded=1;html=1;whiteSpace=wrap;" parent="1" vertex="1">
          <mxGeometry x="626" y="637" width="101" height="50" as="geometry" />
        </mxCell>
        <mxCell id="110" style="vsdxID=86;fillColor=#FFFFFF;gradientColor=none;shape=stencil(hVLtDoIwDHya/SWlDU5/Gj9ewCcgMmURnRmo4NM7KNFtYuRXe7ty1+YEreoyvyqBUDfWnNRDF00paC0Q9aVUVjeuErQRtDoYq47W3C4F99fcMREGRBU8k/ZshNzud/qpGIOEUpnxA0+ezb1XbMcZAH7suM+43TJ3f7NMTmP2CEiZzJChFj8QjSyMxloKVKCjkDDIwnJCGTGheaj9+esoA6Gq741CBn0vO6kabdubkAvvy0IDvsnQ06/F/xnwjxl6auPbdvjHJMUDv67g6iFeHDxdVZzOdypcEcfRQRxl2rwA);strokeColor=#5e5e5e;strokeWidth=2;spacingTop=-3;spacingBottom=-3;spacingLeft=-3;spacingRight=-3;labelBackgroundColor=none;rounded=1;html=1;whiteSpace=wrap;" parent="109" vertex="1">
          <mxGeometry width="101" height="50" as="geometry" />
        </mxCell>
        <mxCell id="111" value="&lt;div style=&quot;font-size: 1px&quot;&gt;&lt;p style=&quot;align:center;margin-left:0;margin-right:0;margin-top:0px;margin-bottom:0px;text-indent:0;valign:middle;direction:ltr;&quot;&gt;&lt;font style=&quot;font-size:14.11px;font-family:Arial;color:#333333;direction:ltr;letter-spacing:0px;line-height:100%;opacity:1&quot;&gt;has diploma&lt;/font&gt;&lt;/p&gt;&lt;/div&gt;" style="text;vsdxID=85;fillColor=none;gradientColor=none;strokeColor=none;strokeWidth=2;spacingTop=-3;spacingBottom=-3;spacingLeft=-3;spacingRight=-3;labelBackgroundColor=none;rounded=1;html=1;whiteSpace=wrap;verticalAlign=middle;align=center;;html=1;" parent="109" vertex="1">
          <mxGeometry x="3.17" y="2.38" width="95.25" height="44.45" as="geometry" />
        </mxCell>
        <mxCell id="112" style="vsdxID=87;rotation=90;fillColor=none;gradientColor=none;strokeColor=none;strokeWidth=2;spacingTop=-3;spacingBottom=-3;spacingLeft=-3;spacingRight=-3;labelBackgroundColor=none;rounded=1;html=1;whiteSpace=wrap;" parent="1" vertex="1">
          <mxGeometry x="951" y="750" width="49" height="1" as="geometry" />
        </mxCell>
        <mxCell id="113" style="vsdxID=88;rotation=90;fillColor=#FFFFFF;gradientColor=none;shape=stencil(vVTbcoQgDP0aHs1w8cbzdvcH+gVMZZWpFQdpd9uvLxp1xF6ffCM5JwknIRBxGhrVa8Lp4J191jdT+YaIB8K56RrtjA8nIs5EnK7W6drZ165Cu1eByenk0RXGsJHNqXJPj+ZDo4+CYEWGAEa+2Lex4n2OAcoRfUdHRifzguSQa6wykznQHMluYQso5+xrQhkn5AueqLsZEme98sZ28/UQa5WrdRKKJddW1RE03LTuN262vV5ruo0WWQKLS+eQ/6wmhYLFalhQKPNIjpRA0+8adIQeCez/w0kh3cthGbAilrNvUXHYdL48jOLX6VDIyp2cbG3Hylmmdfhs/tibcJg2dDJwubfYfpuDC38Ccf4E);strokeColor=#5e5e5e;strokeWidth=2;spacingTop=-3;spacingBottom=-3;spacingLeft=-3;spacingRight=-3;labelBackgroundColor=none;rounded=1;html=1;whiteSpace=wrap;" parent="112" vertex="1">
          <mxGeometry width="49" height="1" as="geometry" />
        </mxCell>
        <mxCell id="114" style="vsdxID=89;fillColor=none;gradientColor=none;strokeColor=none;strokeWidth=2;spacingTop=-3;spacingBottom=-3;spacingLeft=-3;spacingRight=-3;labelBackgroundColor=none;rounded=1;html=1;whiteSpace=wrap;" parent="1" vertex="1">
          <mxGeometry x="925" y="634" width="101" height="101" as="geometry" />
        </mxCell>
        <mxCell id="115" style="vsdxID=90;fillColor=#FFFFFF;gradientColor=none;shape=stencil(vVTbcoMgEP0aHmWURUye0+QH8gVMJcrUioO2uXx9wTVThEn75huec9jdw+5K4DC2clCE5eNkzYe66npqCbwRxnTfKqsndyJwJHC4GKsaa776Gr8H6ZQsnxFV453Cq1ku7ftZPxRiOYWiKpHAm5/m22e8Ic8rCjuk74gwmosZOKHehfOJFj3QHaDc3mNkkZSMCh6HfEoyedNjZs0kJ236pUbkOmkblbl02aWTzYoar0oNAVyEBXa6DwztE0O8em2H031k5xcJAopVQGcQyq38+Ndkq/S+oOK1JaCMxx16IkHTRRKTb2UpceQf9I8mARXJzIl1k5KRcxa3m7n/l8gd5o3FXdZdhwsf8vGGOwj/DnD8AQ==);strokeColor=#5e5e5e;strokeWidth=2;spacingTop=-3;spacingBottom=-3;spacingLeft=-3;spacingRight=-3;labelBackgroundColor=none;rounded=1;html=1;whiteSpace=wrap;" parent="114" vertex="1">
          <mxGeometry width="101" height="101" as="geometry" />
        </mxCell>
        <mxCell id="116" style="vsdxID=91;fillColor=none;gradientColor=none;strokeColor=none;strokeWidth=2;spacingTop=-3;spacingBottom=-3;spacingLeft=-3;spacingRight=-3;labelBackgroundColor=none;rounded=1;html=1;whiteSpace=wrap;" parent="1" vertex="1">
          <mxGeometry x="1026" y="684" width="44" height="1" as="geometry" />
        </mxCell>
        <mxCell id="117" style="vsdxID=92;fillColor=#FFFFFF;gradientColor=none;shape=stencil(xVTLdoMgEP0als7h4QPXafID/QJOJcqpFQ/aJu3XFx1ixbQu0x0z9zLD5TIQcRga1WvC6TA6+6ovphobIp4I56ZrtDOjXxFxJOJwtk7Xzr53Fca98kxO54yucA+b2Jwq9/JsvjTmKAhWZAjgzjf7MXW8Is4R+sQoo3N4QqYvNLUIzBRoqONubAEypAJHQJFHBfkNT9TVDImzoxqN7cLZEGuVq3XimyXnVtURNFy07ldptj5ea7qVkDIHnsa9c8j/lpMDi9VIBiyN1JQS2K/38wg5citnzxsJ5UYNYxKyjZy7Gyoe5s7dwyh2zfmxYtGTLV4sHCn/yZy9ofGLeTbnAMd6jW3n2KfwDxDHbw==);strokeColor=#5e5e5e;strokeWidth=2;spacingTop=-3;spacingBottom=-3;spacingLeft=-3;spacingRight=-3;labelBackgroundColor=none;rounded=1;html=1;whiteSpace=wrap;" parent="116" vertex="1">
          <mxGeometry width="44" height="1" as="geometry" />
        </mxCell>
        <mxCell id="120" style="vsdxID=95;rotation=90;fillColor=none;gradientColor=none;strokeColor=none;strokeWidth=2;spacingTop=-3;spacingBottom=-3;spacingLeft=-3;spacingRight=-3;labelBackgroundColor=none;rounded=1;html=1;whiteSpace=wrap;" parent="1" vertex="1">
          <mxGeometry x="1166.42" y="787.5" width="156.70999999999998" height="1" as="geometry" />
        </mxCell>
        <mxCell id="121" style="vsdxID=96;rotation=90;fillColor=#FFFFFF;gradientColor=none;shape=stencil(vVTbcoQgDP0aHs1w8cbzdvcH+gVMZZWpFQdpd9uvLxp1xF6ffCM5JwknIRBxGhrVa8Lp4J191jdT+YaIB8K56RrtjA8nIs5EnK7W6drZ165Cu1eByenk0RXGsJHNqXJPj+ZDo4+CYEWGAEa+2Lex4n2OAcoRfUdHRifzguSQa6wykznQHMluYQso5+xrQhkn5AueqLsZEme98sZ28/UQa5WrdRKKJddW1RE03LTuN262vV5ruo0WWQKLS+eQ/6wmhYLFalhQKPNIjpRA0+8adIQeCez/w0kh3cthGbAilrNvUXHYdL48jOLX6VDIyp2cbG3Hylmmdfhs/tibcJg2dDJwubfYfpuDC38Ccf4E);strokeColor=#5e5e5e;strokeWidth=2;spacingTop=-3;spacingBottom=-3;spacingLeft=-3;spacingRight=-3;labelBackgroundColor=none;rounded=1;html=1;whiteSpace=wrap;" parent="120" vertex="1">
          <mxGeometry x="69.5" y="-37.07" width="83.86" height="1" as="geometry" />
        </mxCell>
        <mxCell id="122" style="vsdxID=97;fillColor=none;gradientColor=none;strokeColor=none;strokeWidth=2;spacingTop=-3;spacingBottom=-3;spacingLeft=-3;spacingRight=-3;labelBackgroundColor=none;rounded=1;html=1;whiteSpace=wrap;" parent="1" vertex="1">
          <mxGeometry x="924" y="762" width="101" height="101" as="geometry" />
        </mxCell>
        <mxCell id="123" style="vsdxID=98;fillColor=#FFFFFF;gradientColor=none;shape=stencil(vVTLVsMgFPwaluHwiFXXtf6AX8BpbhOOGHIIWurXl/QmhmDiru5gZrjDABci932jOiCC9d7ZdzjryjdEvhAhdNuA0z6OiDwQuT9ZB7Wzn22F805FpWA3BCpcwwe1YMod3/Q3IMao5I8PSODKD/s1OIaRR+qCM0lH7StqY6nBJEwsL1HuLjkSsgJTxbF+KFTQfeGsV17bdsEZ5WooolVxMqpeUP0ZoEtgnm7O6DYJ8ryjYs16NUlJy6dlkhkZJZxtHM0/ZMm952wbaZjI00zI5un8eNw/zq9HMXmvphF0l93NjKw+2iTb/bP83S9xcGtMbFltDPZ1yueNHCH8BOThCg==);strokeColor=#5e5e5e;strokeWidth=2;spacingTop=-3;spacingBottom=-3;spacingLeft=-3;spacingRight=-3;labelBackgroundColor=none;rounded=1;html=1;whiteSpace=wrap;" parent="122" vertex="1">
          <mxGeometry width="101" height="101" as="geometry" />
        </mxCell>
        <mxCell id="124" value="&lt;div style=&quot;font-size: 1px&quot;&gt;&lt;p style=&quot;align:center;margin-left:0;margin-right:0;margin-top:0px;margin-bottom:0px;text-indent:0;valign:middle;direction:ltr;&quot;&gt;&lt;font style=&quot;font-size:14.11px;font-family:Arial;color:#333333;direction:ltr;letter-spacing:0px;line-height:100%;opacity:1&quot;&gt;SESSION&lt;/font&gt;&lt;/p&gt;&lt;/div&gt;" style="text;vsdxID=97;fillColor=none;gradientColor=none;strokeColor=none;strokeWidth=2;spacingTop=-3;spacingBottom=-3;spacingLeft=-3;spacingRight=-3;labelBackgroundColor=none;rounded=1;html=1;whiteSpace=wrap;verticalAlign=middle;align=center;;html=1;" parent="122" vertex="1">
          <mxGeometry x="3.17" y="2.58" width="95.25" height="95.25" as="geometry" />
        </mxCell>
        <mxCell id="125" style="vsdxID=99;rotation=10;fillColor=none;gradientColor=none;strokeColor=none;strokeWidth=2;spacingTop=-3;spacingBottom=-3;spacingLeft=-3;spacingRight=-3;labelBackgroundColor=none;rounded=1;html=1;whiteSpace=wrap;" parent="1" vertex="1">
          <mxGeometry x="993.63" y="899.36" width="86.16" height="1" as="geometry" />
        </mxCell>
        <mxCell id="126" style="vsdxID=100;rotation=10;fillColor=#FFFFFF;gradientColor=none;shape=stencil(xVTbcoMgEP0aHmW4qMhzmvxAvoCpRJlacZA2Sb++6GpGGNu+pW/snrN7OC4r4oexVYNGjIze2Td9NbVvEX9BjJm+1c74cEL8iPjhYp1unP3oa4gHFZiMzBldQw2d2Iwo93o2XxpyBHMqCgCg8t1+Toq3Fa8W9A6JgszhCcih16SykCkWDMhuZfNH/YNTRv3YCmfqZsbMWa+8sf2iDlinXKOzoJVdOtVE0HjVetik6fZ2nek3VmSFeaJdLpfZdcNxLmM3lEhMRGRHSsz2vs8z/ATpXe2f3PDUTYll4qbCedRRPG066bsQv86G4LxK3BSYsshMeLr/NJk/liYc5vWcA9jsLZauckjBb4AfvwE=);strokeColor=#5e5e5e;strokeWidth=2;spacingTop=-3;spacingBottom=-3;spacingLeft=-3;spacingRight=-3;labelBackgroundColor=none;rounded=1;html=1;whiteSpace=wrap;" parent="125" vertex="1">
          <mxGeometry y="-2" width="86.16" height="1" as="geometry" />
        </mxCell>
        <mxCell id="127" style="vsdxID=101;rotation=-195;fillColor=none;gradientColor=none;strokeColor=none;strokeWidth=2;spacingTop=-3;spacingBottom=-3;spacingLeft=-3;spacingRight=-3;labelBackgroundColor=none;rounded=1;html=1;whiteSpace=wrap;" parent="1" vertex="1">
          <mxGeometry x="869.45" y="897.85" width="124.39" height="2.19" as="geometry" />
        </mxCell>
        <mxCell id="128" style="vsdxID=102;rotation=-195;fillColor=#FFFFFF;gradientColor=none;shape=stencil(vVTLcoMwDPwaH/FYMo9wTpMf6Bd4igOeUswYt0n79TUIOphm0p64WbsribUsmDwOjeo1QzF4Z1/11VS+YfKJIZqu0c74cGLyxOTxYp2unX3vKop7FZQoJkRXlAOjGoVyL8/mSxMmuIQiI4Iy3+zH2PG28Av7SUAmpvBM4lBr7DKLgWdIYreoJT/M+T+aFKKCuPCJupkhcdYrb2w3tyeuVa7WSWiWXFpVR9Rw1bpfwbD+vNZ0Ky8gMi5iN5jz/JGfHDZ+Cg6xnVCzKO/d0E6GDv+eDvIyNgMCeVr+siPiksV+89k+jeLhdARP5cZQxgEjP+H5wr0L2sHNH5sTDtOOTgGt95rb7nOA6F8gT98=);strokeColor=#5e5e5e;strokeWidth=2;spacingTop=-3;spacingBottom=-3;spacingLeft=-3;spacingRight=-3;labelBackgroundColor=none;rounded=1;html=1;whiteSpace=wrap;" parent="127" vertex="1">
          <mxGeometry x="6.33" y="1.6" width="118.06" height="0.59" as="geometry" />
        </mxCell>
        <mxCell id="LDY9kuMzX5d0ZNy2fUMn-162" value="" style="endArrow=none;html=1;rounded=0;" edge="1" parent="127">
          <mxGeometry relative="1" as="geometry">
            <mxPoint x="37.19999999999993" y="-8.350000000000023" as="sourcePoint" />
            <mxPoint x="87.19999999999993" y="8.649999999999977" as="targetPoint" />
            <Array as="points">
              <mxPoint x="37.19999999999993" y="0.6499999999999773" />
              <mxPoint x="47.19999999999993" y="11.649999999999977" />
              <mxPoint x="66.19999999999993" y="15.649999999999977" />
            </Array>
          </mxGeometry>
        </mxCell>
        <mxCell id="129" style="vsdxID=103;fillColor=none;gradientColor=none;strokeColor=none;strokeWidth=2;spacingTop=-3;spacingBottom=-3;spacingLeft=-3;spacingRight=-3;labelBackgroundColor=none;rounded=1;html=1;whiteSpace=wrap;" parent="1" vertex="1">
          <mxGeometry x="772" y="901" width="101" height="101" as="geometry" />
        </mxCell>
        <mxCell id="130" style="vsdxID=104;fillColor=#FFFFFF;gradientColor=none;shape=stencil(vVTLVsMgFPwaluHwiFXXtf6AX8BpbhOOGHIIWurXl/QmhmDiru5gZrjDABci932jOiCC9d7ZdzjryjdEvhAhdNuA0z6OiDwQuT9ZB7Wzn22F805FpWA3BCpcwwe1YMod3/Q3IMao5I8PSODKD/s1OIaRR+qCM0lH7StqY6nBJEwsL1HuLjkSsgJTxbF+KFTQfeGsV17bdsEZ5WooolVxMqpeUP0ZoEtgnm7O6DYJ8ryjYs16NUlJy6dlkhkZJZxtHM0/ZMm952wbaZjI00zI5un8eNw/zq9HMXmvphF0l93NjKw+2iTb/bP83S9xcGtMbFltDPZ1yueNHCH8BOThCg==);strokeColor=#5e5e5e;strokeWidth=2;spacingTop=-3;spacingBottom=-3;spacingLeft=-3;spacingRight=-3;labelBackgroundColor=none;rounded=1;html=1;whiteSpace=wrap;" parent="129" vertex="1">
          <mxGeometry width="101" height="101" as="geometry" />
        </mxCell>
        <mxCell id="131" value="&lt;div style=&quot;font-size: 1px&quot;&gt;&lt;p style=&quot;align:center;margin-left:0;margin-right:0;margin-top:0px;margin-bottom:0px;text-indent:0;valign:middle;direction:ltr;&quot;&gt;&lt;font style=&quot;font-size:14.11px;font-family:Arial;color:#333333;direction:ltr;letter-spacing:0px;line-height:100%;opacity:1&quot;&gt;GROUP&lt;/font&gt;&lt;/p&gt;&lt;/div&gt;" style="text;vsdxID=103;fillColor=none;gradientColor=none;strokeColor=none;strokeWidth=2;spacingTop=-3;spacingBottom=-3;spacingLeft=-3;spacingRight=-3;labelBackgroundColor=none;rounded=1;html=1;whiteSpace=wrap;verticalAlign=middle;align=center;;html=1;" parent="129" vertex="1">
          <mxGeometry x="3.17" y="2.58" width="95.25" height="95.25" as="geometry" />
        </mxCell>
        <mxCell id="132" style="vsdxID=105;fillColor=none;gradientColor=none;strokeColor=none;strokeWidth=2;spacingTop=-3;spacingBottom=-3;spacingLeft=-3;spacingRight=-3;labelBackgroundColor=none;rounded=1;html=1;whiteSpace=wrap;" parent="1" vertex="1">
          <mxGeometry x="1076" y="897" width="101" height="101" as="geometry" />
        </mxCell>
        <mxCell id="133" style="vsdxID=106;fillColor=#FFFFFF;gradientColor=none;shape=stencil(vVTLVsMgFPwaluHwiFXXtf6AX8BpbhOOGHIIWurXl/QmhmDiru5gZrjDABci932jOiCC9d7ZdzjryjdEvhAhdNuA0z6OiDwQuT9ZB7Wzn22F805FpWA3BCpcwwe1YMod3/Q3IMao5I8PSODKD/s1OIaRR+qCM0lH7StqY6nBJEwsL1HuLjkSsgJTxbF+KFTQfeGsV17bdsEZ5WooolVxMqpeUP0ZoEtgnm7O6DYJ8ryjYs16NUlJy6dlkhkZJZxtHM0/ZMm952wbaZjI00zI5un8eNw/zq9HMXmvphF0l93NjKw+2iTb/bP83S9xcGtMbFltDPZ1yueNHCH8BOThCg==);strokeColor=#5e5e5e;strokeWidth=2;spacingTop=-3;spacingBottom=-3;spacingLeft=-3;spacingRight=-3;labelBackgroundColor=none;rounded=1;html=1;whiteSpace=wrap;" parent="132" vertex="1">
          <mxGeometry width="101" height="101" as="geometry" />
        </mxCell>
        <mxCell id="134" value="&lt;div style=&quot;font-size: 1px&quot;&gt;&lt;p style=&quot;align:center;margin-left:0;margin-right:0;margin-top:0px;margin-bottom:0px;text-indent:0;valign:middle;direction:ltr;&quot;&gt;&lt;font style=&quot;font-size:14.11px;font-family:Arial;color:#000000;direction:ltr;letter-spacing:0px;line-height:100%;opacity:1&quot;&gt; &lt;/font&gt;&lt;/p&gt;&lt;/div&gt;" style="text;vsdxID=105;fillColor=none;gradientColor=none;strokeColor=none;strokeWidth=2;spacingTop=-3;spacingBottom=-3;spacingLeft=-3;spacingRight=-3;labelBackgroundColor=none;rounded=1;html=1;whiteSpace=wrap;verticalAlign=middle;align=center;;html=1;" parent="132" vertex="1">
          <mxGeometry x="3.17" y="2.58" width="95.25" height="95.25" as="geometry" />
        </mxCell>
        <mxCell id="140" style="vsdxID=111;fillColor=none;gradientColor=none;strokeColor=none;strokeWidth=2;spacingTop=-3;spacingBottom=-3;spacingLeft=-3;spacingRight=-3;labelBackgroundColor=none;rounded=1;html=1;whiteSpace=wrap;" parent="1" vertex="1">
          <mxGeometry x="770" y="750" width="113" height="130.5" as="geometry" />
        </mxCell>
        <mxCell id="141" style="vsdxID=112;fillColor=#FFFFFF;gradientColor=none;shape=stencil(vZTRcoMgEEW/hkcZYVHjc5r+QL+AqUSZWnGQNqZfX3CZjoRp+tS84b2XXc7ASuC4DHJWhJeLs+ZNXXTnBgJPhHM9Dcpq51cETgSOZ2NVb83H1OH3LH2Sl5uiOtzDQpqX0r6+6C+FWkmBNRUauPPdfIaOK/qioXBA+4oKp3WzCc+Y9+VCo5gHeohxe/1RalRipPIVxG3JKKyFXPVSWOOk02aKZ0RvlLZXhW9XnEfZJ9ZyUWreyWx/wFFPO6A2AwqI8DuRoEKkRF5hCVGoWSc1A2P1KKTQjCft2/tIQFl2SSy9JJEh7SD/Hykjqu4/O05bSIm8kl5S9urEI4H+niO/2IYWx1mPI8783r8dci/hDwJO3w==);strokeColor=#5e5e5e;strokeWidth=2;spacingTop=-3;spacingBottom=-3;spacingLeft=-3;spacingRight=-3;labelBackgroundColor=none;rounded=1;html=1;whiteSpace=wrap;" parent="140" vertex="1">
          <mxGeometry width="113.00000000000001" height="106.25000000000001" as="geometry" />
        </mxCell>
        <mxCell id="GUA9GLIF289MP995d6Cd-303" value="Supervised by" style="text;html=1;strokeColor=none;fillColor=none;align=center;verticalAlign=middle;whiteSpace=wrap;rounded=0;" parent="140" vertex="1">
          <mxGeometry x="34.12376237623763" y="22.37166666666667" width="44.75247524752476" height="31.250000000000004" as="geometry" />
        </mxCell>
        <mxCell id="GUA9GLIF289MP995d6Cd-304" value="Supervises" style="text;html=1;strokeColor=none;fillColor=none;align=center;verticalAlign=middle;whiteSpace=wrap;rounded=0;" parent="140" vertex="1">
          <mxGeometry x="22.93564356435644" y="46.875" width="67.12871287128714" height="31.250000000000004" as="geometry" />
        </mxCell>
        <mxCell id="142" style="vsdxID=113;fillColor=none;gradientColor=none;strokeColor=none;strokeWidth=2;spacingTop=-3;spacingBottom=-3;spacingLeft=-3;spacingRight=-3;labelBackgroundColor=none;rounded=1;html=1;whiteSpace=wrap;" parent="140" vertex="1">
          <mxGeometry y="52.62" width="110" height="1" as="geometry" />
        </mxCell>
        <mxCell id="143" style="vsdxID=114;fillColor=#FFFFFF;gradientColor=none;shape=stencil(xVTLdoMgEP0alnJ4COo6TX4gX8CpRDm14kHaJP36ooOpWusy3TFz78z1MoyIH/padRox0ntn3/TVlL5G/AUxZtpaO+PDCfEj4oeLdbpy9qMtIe5UYDIyZnQJNXRgM6Lc69l8acgRzGkmAIDKd/s5KN4mPIJ3iAUZwxNwQ6tBJHIpJlHCTWyO81j/6Feki4ZswhN1M33irFfe2DayAWuUq3QSxJJLo6oF1F+17mZpOv+8xrQzK0WBiVxqSyz37ORyaWfW4aen4FsX9Bw/Qm5pb7phmK7cUJo+HP55RdnTxvPrZWS70yGY5Ss/AlO2emxp9k/D2d+bcBgXdAxgt+fYeplDCn4E/PgN);strokeColor=#5e5e5e;strokeWidth=2;spacingTop=-3;spacingBottom=-3;spacingLeft=-3;spacingRight=-3;labelBackgroundColor=none;rounded=1;html=1;whiteSpace=wrap;" parent="142" vertex="1">
          <mxGeometry width="110.00000000000001" height="1" as="geometry" />
        </mxCell>
        <mxCell id="GUA9GLIF289MP995d6Cd-320" value="" style="endArrow=none;html=1;rounded=0;exitX=0.516;exitY=0.042;exitDx=0;exitDy=0;exitPerimeter=0;entryX=0.559;entryY=0.988;entryDx=0;entryDy=0;entryPerimeter=0;" parent="140" edge="1">
          <mxGeometry width="50" height="50" relative="1" as="geometry">
            <mxPoint x="56.99800000000005" y="151.9225" as="sourcePoint" />
            <mxPoint x="57.14899999999989" y="106.24799999999993" as="targetPoint" />
          </mxGeometry>
        </mxCell>
        <mxCell id="150" style="vsdxID=119;fillColor=none;gradientColor=none;strokeColor=none;strokeWidth=2;spacingTop=-3;spacingBottom=-3;spacingLeft=-3;spacingRight=-3;labelBackgroundColor=none;rounded=1;html=1;whiteSpace=wrap;" parent="1" vertex="1">
          <mxGeometry x="1094" y="909" width="67" height="76" as="geometry" />
        </mxCell>
        <mxCell id="151" style="vsdxID=120;fillColor=#FFFFFF;gradientColor=none;shape=stencil(vZRNcoQgEIVPw1KKXy3Xk5kL5ARUZJQKEQtJxuT0QVstGSfuMjvo9+jnR9Eifuob1WnESB+8e9c3U4UG8RfEmGkb7U2IK8TPiJ+uzuvau8+2gn2nopORqaIrOENHNyPKv72aHw01gjktJAhw8sN9jYnDrIP0DTuBy2IqXMAbW40hw6IWAux+9VPwL+0kzvOk49x/yNRg+sy7oIJxbaJZ5WudxajsalWdSP1N625TptuPs6bdgJQCc/Eg+iFJvnoXEollSkLJH1fzBJb77FJiIo9odjA5S2D2l7NG/D/N7k3EbEz40Tub1RWIYykSoP398GfhHE9MXEyjCUNrrIXJ3ur3oxxL8Bvg518=);strokeColor=#5e5e5e;strokeWidth=2;spacingTop=-3;spacingBottom=-3;spacingLeft=-3;spacingRight=-3;labelBackgroundColor=none;rounded=1;html=1;whiteSpace=wrap;" parent="150" vertex="1">
          <mxGeometry width="67" height="76" as="geometry" />
        </mxCell>
        <mxCell id="152" value="&lt;div style=&quot;font-size: 1px&quot;&gt;&lt;p style=&quot;align:center;margin-left:0;margin-right:0;margin-top:0px;margin-bottom:0px;text-indent:0;valign:middle;direction:ltr;&quot;&gt;&lt;font style=&quot;font-size:14.11px;font-family:Arial;color:#333333;direction:ltr;letter-spacing:0px;line-height:100%;opacity:1&quot;&gt;SINGLE&lt;/font&gt;&lt;/p&gt;&lt;/div&gt;" style="text;vsdxID=119;fillColor=none;gradientColor=none;strokeColor=none;strokeWidth=2;spacingTop=-3;spacingBottom=-3;spacingLeft=-3;spacingRight=-3;labelBackgroundColor=none;rounded=1;html=1;whiteSpace=wrap;verticalAlign=middle;align=center;;html=1;" parent="150" vertex="1">
          <mxGeometry x="3.18" y="2.55" width="60.96" height="70.49" as="geometry" />
        </mxCell>
        <mxCell id="GUA9GLIF289MP995d6Cd-305" value="SUPERVISION" style="text;html=1;align=center;verticalAlign=middle;resizable=0;points=[];autosize=1;strokeColor=none;fillColor=none;rotation=270;" parent="1" vertex="1">
          <mxGeometry x="696" y="795.5" width="100" height="20" as="geometry" />
        </mxCell>
        <mxCell id="GUA9GLIF289MP995d6Cd-314" value="" style="endArrow=none;html=1;rounded=0;exitX=0.516;exitY=0.042;exitDx=0;exitDy=0;exitPerimeter=0;entryX=0.559;entryY=0.988;entryDx=0;entryDy=0;entryPerimeter=0;" parent="1" source="141" target="88" edge="1">
          <mxGeometry width="50" height="50" relative="1" as="geometry">
            <mxPoint x="810" y="760" as="sourcePoint" />
            <mxPoint x="823" y="710" as="targetPoint" />
          </mxGeometry>
        </mxCell>
        <mxCell id="GUA9GLIF289MP995d6Cd-321" value="PARTICIPATES IN" style="text;html=1;align=center;verticalAlign=middle;resizable=0;points=[];autosize=1;strokeColor=none;fillColor=none;" parent="1" vertex="1">
          <mxGeometry x="924" y="609" width="110" height="20" as="geometry" />
        </mxCell>
        <mxCell id="GUA9GLIF289MP995d6Cd-323" style="vsdxID=89;fillColor=none;gradientColor=none;strokeColor=none;strokeWidth=2;spacingTop=-3;spacingBottom=-3;spacingLeft=-3;spacingRight=-3;labelBackgroundColor=none;rounded=1;html=1;whiteSpace=wrap;" parent="1" vertex="1">
          <mxGeometry x="1227.35" y="764.75" width="101" height="101" as="geometry" />
        </mxCell>
        <mxCell id="GUA9GLIF289MP995d6Cd-324" style="vsdxID=90;fillColor=#FFFFFF;gradientColor=none;shape=stencil(vVTbcoMgEP0aHmWURUye0+QH8gVMJcrUioO2uXx9wTVThEn75huec9jdw+5K4DC2clCE5eNkzYe66npqCbwRxnTfKqsndyJwJHC4GKsaa776Gr8H6ZQsnxFV453Cq1ku7ftZPxRiOYWiKpHAm5/m22e8Ic8rCjuk74gwmosZOKHehfOJFj3QHaDc3mNkkZSMCh6HfEoyedNjZs0kJ236pUbkOmkblbl02aWTzYoar0oNAVyEBXa6DwztE0O8em2H031k5xcJAopVQGcQyq38+Ndkq/S+oOK1JaCMxx16IkHTRRKTb2UpceQf9I8mARXJzIl1k5KRcxa3m7n/l8gd5o3FXdZdhwsf8vGGOwj/DnD8AQ==);strokeColor=#5e5e5e;strokeWidth=2;spacingTop=-3;spacingBottom=-3;spacingLeft=-3;spacingRight=-3;labelBackgroundColor=none;rounded=1;html=1;whiteSpace=wrap;" parent="GUA9GLIF289MP995d6Cd-323" vertex="1">
          <mxGeometry width="101" height="101" as="geometry" />
        </mxCell>
        <mxCell id="GUA9GLIF289MP995d6Cd-325" style="vsdxID=91;fillColor=none;gradientColor=none;strokeColor=none;strokeWidth=2;spacingTop=-3;spacingBottom=-3;spacingLeft=-3;spacingRight=-3;labelBackgroundColor=none;rounded=1;html=1;whiteSpace=wrap;" parent="1" vertex="1">
          <mxGeometry x="1025" y="812" width="205" height="1" as="geometry" />
        </mxCell>
        <mxCell id="GUA9GLIF289MP995d6Cd-326" style="vsdxID=92;fillColor=#FFFFFF;gradientColor=none;shape=stencil(xVTLdoMgEP0als7h4QPXafID/QJOJcqpFQ/aJu3XFx1ixbQu0x0z9zLD5TIQcRga1WvC6TA6+6ovphobIp4I56ZrtDOjXxFxJOJwtk7Xzr53Fca98kxO54yucA+b2Jwq9/JsvjTmKAhWZAjgzjf7MXW8Is4R+sQoo3N4QqYvNLUIzBRoqONubAEypAJHQJFHBfkNT9TVDImzoxqN7cLZEGuVq3XimyXnVtURNFy07ldptj5ea7qVkDIHnsa9c8j/lpMDi9VIBiyN1JQS2K/38wg5citnzxsJ5UYNYxKyjZy7Gyoe5s7dwyh2zfmxYtGTLV4sHCn/yZy9ofGLeTbnAMd6jW3n2KfwDxDHbw==);strokeColor=#5e5e5e;strokeWidth=2;spacingTop=-3;spacingBottom=-3;spacingLeft=-3;spacingRight=-3;labelBackgroundColor=none;rounded=1;html=1;whiteSpace=wrap;" parent="GUA9GLIF289MP995d6Cd-325" vertex="1">
          <mxGeometry width="205" height="1" as="geometry" />
        </mxCell>
        <mxCell id="GUA9GLIF289MP995d6Cd-330" value="TAKES PLACE IN" style="text;html=1;align=center;verticalAlign=middle;resizable=0;points=[];autosize=1;strokeColor=none;fillColor=none;" parent="1" vertex="1">
          <mxGeometry x="1224" y="869.5" width="110" height="20" as="geometry" />
        </mxCell>
        <mxCell id="GUA9GLIF289MP995d6Cd-334" style="vsdxID=87;rotation=-210;fillColor=none;gradientColor=none;strokeColor=none;strokeWidth=2;spacingTop=-3;spacingBottom=-3;spacingLeft=-3;spacingRight=-3;labelBackgroundColor=none;rounded=1;html=1;whiteSpace=wrap;" parent="1" vertex="1">
          <mxGeometry x="1014" y="782.75" width="82.8" height="1" as="geometry" />
        </mxCell>
        <mxCell id="GUA9GLIF289MP995d6Cd-335" style="vsdxID=88;rotation=-210;fillColor=#FFFFFF;gradientColor=none;shape=stencil(vVTbcoQgDP0aHs1w8cbzdvcH+gVMZZWpFQdpd9uvLxp1xF6ffCM5JwknIRBxGhrVa8Lp4J191jdT+YaIB8K56RrtjA8nIs5EnK7W6drZ165Cu1eByenk0RXGsJHNqXJPj+ZDo4+CYEWGAEa+2Lex4n2OAcoRfUdHRifzguSQa6wykznQHMluYQso5+xrQhkn5AueqLsZEme98sZ28/UQa5WrdRKKJddW1RE03LTuN262vV5ruo0WWQKLS+eQ/6wmhYLFalhQKPNIjpRA0+8adIQeCez/w0kh3cthGbAilrNvUXHYdL48jOLX6VDIyp2cbG3Hylmmdfhs/tibcJg2dDJwubfYfpuDC38Ccf4E);strokeColor=#5e5e5e;strokeWidth=2;spacingTop=-3;spacingBottom=-3;spacingLeft=-3;spacingRight=-3;labelBackgroundColor=none;rounded=1;html=1;whiteSpace=wrap;" parent="GUA9GLIF289MP995d6Cd-334" vertex="1">
          <mxGeometry x="11.09" y="-2.07" width="71.71" height="1" as="geometry" />
        </mxCell>
        <mxCell id="GUA9GLIF289MP995d6Cd-336" style="vsdxID=71;fillColor=none;gradientColor=none;strokeColor=none;strokeWidth=2;spacingTop=-3;spacingBottom=-3;spacingLeft=-3;spacingRight=-3;labelBackgroundColor=none;rounded=1;html=1;whiteSpace=wrap;" parent="1" vertex="1">
          <mxGeometry x="1034" y="730" width="80" height="40" as="geometry" />
        </mxCell>
        <mxCell id="GUA9GLIF289MP995d6Cd-337" style="vsdxID=72;fillColor=#FFFFFF;gradientColor=none;shape=stencil(hVLtDoIwDHya/SWlDU5/Gj9ewCcgMmURnRmo4NM7KNFtYuRXe7ty1+YEreoyvyqBUDfWnNRDF00paC0Q9aVUVjeuErQRtDoYq47W3C4F99fcMREGRBU8k/ZshNzud/qpGIOEUpnxA0+ezb1XbMcZAH7suM+43TJ3f7NMTmP2CEiZzJChFj8QjSyMxloKVKCjkDDIwnJCGTGheaj9+esoA6Gq741CBn0vO6kabdubkAvvy0IDvsnQ06/F/xnwjxl6auPbdvjHJMUDv67g6iFeHDxdVZzOdypcEcfRQRxl2rwA);strokeColor=#5e5e5e;strokeWidth=2;spacingTop=-3;spacingBottom=-3;spacingLeft=-3;spacingRight=-3;labelBackgroundColor=none;rounded=1;html=1;whiteSpace=wrap;" parent="GUA9GLIF289MP995d6Cd-336" vertex="1">
          <mxGeometry width="80" height="40" as="geometry" />
        </mxCell>
        <mxCell id="GUA9GLIF289MP995d6Cd-338" value="&lt;div&gt;&lt;p style=&quot;margin: 0px ; text-indent: 0px ; direction: ltr&quot;&gt;&lt;font color=&quot;#333333&quot; face=&quot;arial&quot;&gt;&lt;span style=&quot;font-size: 14.11px&quot;&gt;date&lt;/span&gt;&lt;/font&gt;&lt;/p&gt;&lt;/div&gt;" style="text;vsdxID=71;fillColor=none;gradientColor=none;strokeColor=none;strokeWidth=2;spacingTop=-3;spacingBottom=-3;spacingLeft=-3;spacingRight=-3;labelBackgroundColor=none;rounded=1;html=1;whiteSpace=wrap;verticalAlign=middle;align=center;;html=1;" parent="GUA9GLIF289MP995d6Cd-336" vertex="1">
          <mxGeometry x="2.510891089108911" y="1.904" width="75.44554455445545" height="35.56" as="geometry" />
        </mxCell>
        <mxCell id="GUA9GLIF289MP995d6Cd-345" style="vsdxID=71;fillColor=none;gradientColor=none;strokeColor=none;strokeWidth=2;spacingTop=-3;spacingBottom=-3;spacingLeft=-3;spacingRight=-3;labelBackgroundColor=none;rounded=1;html=1;whiteSpace=wrap;" parent="1" vertex="1">
          <mxGeometry x="870" y="710" width="80" height="40" as="geometry" />
        </mxCell>
        <mxCell id="GUA9GLIF289MP995d6Cd-346" style="vsdxID=72;fillColor=#FFFFFF;gradientColor=none;shape=stencil(hVLtDoIwDHya/SWlDU5/Gj9ewCcgMmURnRmo4NM7KNFtYuRXe7ty1+YEreoyvyqBUDfWnNRDF00paC0Q9aVUVjeuErQRtDoYq47W3C4F99fcMREGRBU8k/ZshNzud/qpGIOEUpnxA0+ezb1XbMcZAH7suM+43TJ3f7NMTmP2CEiZzJChFj8QjSyMxloKVKCjkDDIwnJCGTGheaj9+esoA6Gq741CBn0vO6kabdubkAvvy0IDvsnQ06/F/xnwjxl6auPbdvjHJMUDv67g6iFeHDxdVZzOdypcEcfRQRxl2rwA);strokeColor=#5e5e5e;strokeWidth=2;spacingTop=-3;spacingBottom=-3;spacingLeft=-3;spacingRight=-3;labelBackgroundColor=none;rounded=1;html=1;whiteSpace=wrap;" parent="GUA9GLIF289MP995d6Cd-345" vertex="1">
          <mxGeometry width="80" height="40" as="geometry" />
        </mxCell>
        <mxCell id="GUA9GLIF289MP995d6Cd-347" value="&lt;div&gt;&lt;p style=&quot;margin: 0px ; text-indent: 0px ; direction: ltr&quot;&gt;&lt;font color=&quot;#333333&quot; face=&quot;arial&quot;&gt;&lt;span style=&quot;font-size: 14.11px&quot;&gt;start time&lt;/span&gt;&lt;/font&gt;&lt;/p&gt;&lt;/div&gt;" style="text;vsdxID=71;fillColor=none;gradientColor=none;strokeColor=none;strokeWidth=2;spacingTop=-3;spacingBottom=-3;spacingLeft=-3;spacingRight=-3;labelBackgroundColor=none;rounded=1;html=1;whiteSpace=wrap;verticalAlign=middle;align=center;;html=1;" parent="GUA9GLIF289MP995d6Cd-345" vertex="1">
          <mxGeometry x="2.510891089108911" y="1.904" width="75.44554455445545" height="35.56" as="geometry" />
        </mxCell>
        <mxCell id="GUA9GLIF289MP995d6Cd-340" style="vsdxID=87;rotation=75;fillColor=none;gradientColor=none;strokeColor=none;strokeWidth=2;spacingTop=-3;spacingBottom=-3;spacingLeft=-3;spacingRight=-3;labelBackgroundColor=none;rounded=1;html=1;whiteSpace=wrap;" parent="GUA9GLIF289MP995d6Cd-345" vertex="1">
          <mxGeometry x="69.5" y="25" width="24" height="2.5" as="geometry" />
        </mxCell>
        <mxCell id="GUA9GLIF289MP995d6Cd-341" style="vsdxID=88;rotation=75;fillColor=#FFFFFF;gradientColor=none;shape=stencil(vVTbcoQgDP0aHs1w8cbzdvcH+gVMZZWpFQdpd9uvLxp1xF6ffCM5JwknIRBxGhrVa8Lp4J191jdT+YaIB8K56RrtjA8nIs5EnK7W6drZ165Cu1eByenk0RXGsJHNqXJPj+ZDo4+CYEWGAEa+2Lex4n2OAcoRfUdHRifzguSQa6wykznQHMluYQso5+xrQhkn5AueqLsZEme98sZ28/UQa5WrdRKKJddW1RE03LTuN262vV5ruo0WWQKLS+eQ/6wmhYLFalhQKPNIjpRA0+8adIQeCez/w0kh3cthGbAilrNvUXHYdL48jOLX6VDIyp2cbG3Hylmmdfhs/tibcJg2dDJwubfYfpuDC38Ccf4E);strokeColor=#5e5e5e;strokeWidth=2;spacingTop=-3;spacingBottom=-3;spacingLeft=-3;spacingRight=-3;labelBackgroundColor=none;rounded=1;html=1;whiteSpace=wrap;" parent="GUA9GLIF289MP995d6Cd-340" vertex="1">
          <mxGeometry x="-3.9183673469387754" y="14.5" width="24" height="2.5" as="geometry" />
        </mxCell>
        <mxCell id="GUA9GLIF289MP995d6Cd-348" style="vsdxID=17;fillColor=none;gradientColor=none;strokeColor=none;strokeWidth=2;spacingTop=-3;spacingBottom=-3;spacingLeft=-3;spacingRight=-3;labelBackgroundColor=none;rounded=1;html=1;whiteSpace=wrap;" parent="1" vertex="1">
          <mxGeometry x="1025" y="507" width="50" height="1" as="geometry" />
        </mxCell>
        <mxCell id="GUA9GLIF289MP995d6Cd-349" style="vsdxID=18;fillColor=#FFFFFF;gradientColor=none;shape=stencil(xZRdcoQgDMdPw6MZPhT0ebu9QE/AVFaZWnGQdrc9fdHojLitj9s3kvyT8CNGIk5jqwdDOB2Dd2/mauvQEvFEOLd9a7wN8UTEmYjTxXnTePfR12gPOio5nT2mxhw2qTnV/vXFfhv0URBMFRjAzHf3OXW8JTlfaBV0Np9RGQtNLRYlB8pR7Fe1gHIpvVaDskwK8jWe6ZsdM++CDtb1y90w1mnfmCw2yy6dbpLQeDVm2LjZ9nqd7TcglQQu094S5N84OcgdDouIlUx4KgWs/O2FHgGk9kBH08lBiB0OK4CpFOfujdTD5nP3aajD8VAo1I4n4vAEh0KV/9NwjtYmHubtnA1c7G1sv8nRhX8Bcf4B);strokeColor=#5e5e5e;strokeWidth=2;spacingTop=-3;spacingBottom=-3;spacingLeft=-3;spacingRight=-3;labelBackgroundColor=none;rounded=1;html=1;whiteSpace=wrap;" parent="GUA9GLIF289MP995d6Cd-348" vertex="1">
          <mxGeometry width="50" height="1" as="geometry" />
        </mxCell>
        <mxCell id="GUA9GLIF289MP995d6Cd-351" style="vsdxID=77;fillColor=none;gradientColor=none;strokeColor=none;strokeWidth=2;spacingTop=-3;spacingBottom=-3;spacingLeft=-3;spacingRight=-3;labelBackgroundColor=none;rounded=1;html=1;whiteSpace=wrap;" parent="1" vertex="1">
          <mxGeometry x="1070" y="480" width="101" height="50" as="geometry" />
        </mxCell>
        <mxCell id="GUA9GLIF289MP995d6Cd-352" style="vsdxID=78;fillColor=#FFFFFF;gradientColor=none;shape=stencil(hVLtDoIwDHya/SWlDU5/Gj9ewCcgMmURnRmo4NM7KNFtYuRXe7ty1+YEreoyvyqBUDfWnNRDF00paC0Q9aVUVjeuErQRtDoYq47W3C4F99fcMREGRBU8k/ZshNzud/qpGIOEUpnxA0+ezb1XbMcZAH7suM+43TJ3f7NMTmP2CEiZzJChFj8QjSyMxloKVKCjkDDIwnJCGTGheaj9+esoA6Gq741CBn0vO6kabdubkAvvy0IDvsnQ06/F/xnwjxl6auPbdvjHJMUDv67g6iFeHDxdVZzOdypcEcfRQRxl2rwA);strokeColor=#5e5e5e;strokeWidth=2;spacingTop=-3;spacingBottom=-3;spacingLeft=-3;spacingRight=-3;labelBackgroundColor=none;rounded=1;html=1;whiteSpace=wrap;" parent="GUA9GLIF289MP995d6Cd-351" vertex="1">
          <mxGeometry width="101" height="50" as="geometry" />
        </mxCell>
        <mxCell id="GUA9GLIF289MP995d6Cd-353" value="&lt;div style=&quot;font-size: 1px&quot;&gt;&lt;p style=&quot;margin-left: 0 ; margin-right: 0 ; margin-top: 0px ; margin-bottom: 0px ; text-indent: 0 ; direction: ltr&quot;&gt;&lt;font style=&quot;font-size: 14.11px ; font-family: &amp;#34;arial&amp;#34; ; color: #333333 ; direction: ltr ; letter-spacing: 0px ; line-height: 100% ; opacity: 1&quot;&gt;Has participated in session?&lt;/font&gt;&lt;/p&gt;&lt;/div&gt;" style="text;vsdxID=77;fillColor=none;gradientColor=none;strokeColor=none;strokeWidth=2;spacingTop=-3;spacingBottom=-3;spacingLeft=-3;spacingRight=-3;labelBackgroundColor=none;rounded=1;html=1;whiteSpace=wrap;verticalAlign=middle;align=center;;html=1;" parent="GUA9GLIF289MP995d6Cd-351" vertex="1">
          <mxGeometry x="3.17" y="2.38" width="95.25" height="44.45" as="geometry" />
        </mxCell>
        <mxCell id="GUA9GLIF289MP995d6Cd-354" style="vsdxID=77;fillColor=none;gradientColor=none;strokeColor=none;strokeWidth=2;spacingTop=-3;spacingBottom=-3;spacingLeft=-3;spacingRight=-3;labelBackgroundColor=none;rounded=1;html=1;whiteSpace=wrap;" parent="1" vertex="1">
          <mxGeometry x="780" y="510" width="101" height="50" as="geometry" />
        </mxCell>
        <mxCell id="GUA9GLIF289MP995d6Cd-355" style="vsdxID=78;fillColor=#FFFFFF;gradientColor=none;shape=stencil(hVLtDoIwDHya/SWlDU5/Gj9ewCcgMmURnRmo4NM7KNFtYuRXe7ty1+YEreoyvyqBUDfWnNRDF00paC0Q9aVUVjeuErQRtDoYq47W3C4F99fcMREGRBU8k/ZshNzud/qpGIOEUpnxA0+ezb1XbMcZAH7suM+43TJ3f7NMTmP2CEiZzJChFj8QjSyMxloKVKCjkDDIwnJCGTGheaj9+esoA6Gq741CBn0vO6kabdubkAvvy0IDvsnQ06/F/xnwjxl6auPbdvjHJMUDv67g6iFeHDxdVZzOdypcEcfRQRxl2rwA);strokeColor=#5e5e5e;strokeWidth=2;spacingTop=-3;spacingBottom=-3;spacingLeft=-3;spacingRight=-3;labelBackgroundColor=none;rounded=1;html=1;whiteSpace=wrap;" parent="GUA9GLIF289MP995d6Cd-354" vertex="1">
          <mxGeometry width="101" height="50" as="geometry" />
        </mxCell>
        <mxCell id="GUA9GLIF289MP995d6Cd-356" value="&lt;div style=&quot;font-size: 1px&quot;&gt;&lt;p style=&quot;margin-left: 0 ; margin-right: 0 ; margin-top: 0px ; margin-bottom: 0px ; text-indent: 0 ; direction: ltr&quot;&gt;&lt;font style=&quot;font-size: 14.11px ; font-family: &amp;#34;arial&amp;#34; ; color: #333333 ; direction: ltr ; letter-spacing: 0px ; line-height: 100% ; opacity: 1&quot;&gt;Has supervised a session?&lt;/font&gt;&lt;/p&gt;&lt;/div&gt;" style="text;vsdxID=77;fillColor=none;gradientColor=none;strokeColor=none;strokeWidth=2;spacingTop=-3;spacingBottom=-3;spacingLeft=-3;spacingRight=-3;labelBackgroundColor=none;rounded=1;html=1;whiteSpace=wrap;verticalAlign=middle;align=center;;html=1;" parent="GUA9GLIF289MP995d6Cd-354" vertex="1">
          <mxGeometry x="3.17" y="2.38" width="95.25" height="44.45" as="geometry" />
        </mxCell>
        <mxCell id="GUA9GLIF289MP995d6Cd-358" style="vsdxID=75;rotation=90;fillColor=none;gradientColor=none;strokeColor=none;strokeWidth=2;spacingTop=-3;spacingBottom=-3;spacingLeft=-3;spacingRight=-3;labelBackgroundColor=none;rounded=1;html=1;whiteSpace=wrap;" parent="1" vertex="1">
          <mxGeometry x="802" y="585" width="49" height="1" as="geometry" />
        </mxCell>
        <mxCell id="GUA9GLIF289MP995d6Cd-359" style="vsdxID=76;rotation=90;fillColor=#FFFFFF;gradientColor=none;shape=stencil(vVTbcoQgDP0aHs1w8cbzdvcH+gVMZZWpFQdpd9uvLxp1xF6ffCM5JwknIRBxGhrVa8Lp4J191jdT+YaIB8K56RrtjA8nIs5EnK7W6drZ165Cu1eByenk0RXGsJHNqXJPj+ZDo4+CYEWGAEa+2Lex4n2OAcoRfUdHRifzguSQa6wykznQHMluYQso5+xrQhkn5AueqLsZEme98sZ28/UQa5WrdRKKJddW1RE03LTuN262vV5ruo0WWQKLS+eQ/6wmhYLFalhQKPNIjpRA0+8adIQeCez/w0kh3cthGbAilrNvUXHYdL48jOLX6VDIyp2cbG3Hylmmdfhs/tibcJg2dDJwubfYfpuDC38Ccf4E);strokeColor=#5e5e5e;strokeWidth=2;spacingTop=-3;spacingBottom=-3;spacingLeft=-3;spacingRight=-3;labelBackgroundColor=none;rounded=1;html=1;whiteSpace=wrap;" parent="GUA9GLIF289MP995d6Cd-358" vertex="1">
          <mxGeometry width="49" height="1" as="geometry" />
        </mxCell>
        <mxCell id="GUA9GLIF289MP995d6Cd-361" style="vsdxID=83;fillColor=none;gradientColor=none;strokeColor=none;strokeWidth=2;spacingTop=-3;spacingBottom=-3;spacingLeft=-3;spacingRight=-3;labelBackgroundColor=none;rounded=1;html=1;whiteSpace=wrap;" parent="1" vertex="1">
          <mxGeometry x="720" y="951" width="50" height="1" as="geometry" />
        </mxCell>
        <mxCell id="GUA9GLIF289MP995d6Cd-362" style="vsdxID=84;fillColor=#FFFFFF;gradientColor=none;shape=stencil(xZRdcoQgDMdPw6MZPhT0ebu9QE/AVFaZWnGQdrc9fdHojLitj9s3kvyT8CNGIk5jqwdDOB2Dd2/mauvQEvFEOLd9a7wN8UTEmYjTxXnTePfR12gPOio5nT2mxhw2qTnV/vXFfhv0URBMFRjAzHf3OXW8JTlfaBV0Np9RGQtNLRYlB8pR7Fe1gHIpvVaDskwK8jWe6ZsdM++CDtb1y90w1mnfmCw2yy6dbpLQeDVm2LjZ9nqd7TcglQQu094S5N84OcgdDouIlUx4KgWs/O2FHgGk9kBH08lBiB0OK4CpFOfujdTD5nP3aajD8VAo1I4n4vAEh0KV/9NwjtYmHubtnA1c7G1sv8nRhX8Bcf4B);strokeColor=#5e5e5e;strokeWidth=2;spacingTop=-3;spacingBottom=-3;spacingLeft=-3;spacingRight=-3;labelBackgroundColor=none;rounded=1;html=1;whiteSpace=wrap;" parent="GUA9GLIF289MP995d6Cd-361" vertex="1">
          <mxGeometry width="50" height="1" as="geometry" />
        </mxCell>
        <mxCell id="GUA9GLIF289MP995d6Cd-364" style="vsdxID=85;fillColor=none;gradientColor=none;strokeColor=none;strokeWidth=2;spacingTop=-3;spacingBottom=-3;spacingLeft=-3;spacingRight=-3;labelBackgroundColor=none;rounded=1;html=1;whiteSpace=wrap;" parent="1" vertex="1">
          <mxGeometry x="620" y="930" width="101" height="50" as="geometry" />
        </mxCell>
        <mxCell id="GUA9GLIF289MP995d6Cd-365" style="vsdxID=86;fillColor=#FFFFFF;gradientColor=none;shape=stencil(hVLtDoIwDHya/SWlDU5/Gj9ewCcgMmURnRmo4NM7KNFtYuRXe7ty1+YEreoyvyqBUDfWnNRDF00paC0Q9aVUVjeuErQRtDoYq47W3C4F99fcMREGRBU8k/ZshNzud/qpGIOEUpnxA0+ezb1XbMcZAH7suM+43TJ3f7NMTmP2CEiZzJChFj8QjSyMxloKVKCjkDDIwnJCGTGheaj9+esoA6Gq741CBn0vO6kabdubkAvvy0IDvsnQ06/F/xnwjxl6auPbdvjHJMUDv67g6iFeHDxdVZzOdypcEcfRQRxl2rwA);strokeColor=#5e5e5e;strokeWidth=2;spacingTop=-3;spacingBottom=-3;spacingLeft=-3;spacingRight=-3;labelBackgroundColor=none;rounded=1;html=1;whiteSpace=wrap;" parent="GUA9GLIF289MP995d6Cd-364" vertex="1">
          <mxGeometry width="101" height="50" as="geometry" />
        </mxCell>
        <mxCell id="GUA9GLIF289MP995d6Cd-366" value="&lt;div style=&quot;font-size: 1px&quot;&gt;&lt;p style=&quot;margin-left: 0 ; margin-right: 0 ; margin-top: 0px ; margin-bottom: 0px ; text-indent: 0 ; direction: ltr&quot;&gt;&lt;font style=&quot;font-size: 14.11px ; font-family: &amp;#34;arial&amp;#34; ; color: #333333 ; direction: ltr ; letter-spacing: 0px ; line-height: 100% ; opacity: 1&quot;&gt;workout type&lt;/font&gt;&lt;/p&gt;&lt;/div&gt;" style="text;vsdxID=85;fillColor=none;gradientColor=none;strokeColor=none;strokeWidth=2;spacingTop=-3;spacingBottom=-3;spacingLeft=-3;spacingRight=-3;labelBackgroundColor=none;rounded=1;html=1;whiteSpace=wrap;verticalAlign=middle;align=center;;html=1;" parent="GUA9GLIF289MP995d6Cd-364" vertex="1">
          <mxGeometry x="3.17" y="2.38" width="95.25" height="44.45" as="geometry" />
        </mxCell>
        <mxCell id="GUA9GLIF289MP995d6Cd-367" value="1..1" style="text;html=1;align=center;verticalAlign=middle;resizable=0;points=[];autosize=1;strokeColor=none;fillColor=none;" parent="1" vertex="1">
          <mxGeometry x="830" y="881" width="40" height="20" as="geometry" />
        </mxCell>
        <mxCell id="GUA9GLIF289MP995d6Cd-368" value="0..N&lt;br&gt;" style="text;html=1;align=center;verticalAlign=middle;resizable=0;points=[];autosize=1;strokeColor=none;fillColor=none;" parent="1" vertex="1">
          <mxGeometry x="827" y="711" width="40" height="20" as="geometry" />
        </mxCell>
        <mxCell id="LDY9kuMzX5d0ZNy2fUMn-152" value="1..1" style="text;html=1;align=center;verticalAlign=middle;resizable=0;points=[];autosize=1;strokeColor=none;fillColor=none;" vertex="1" parent="1">
          <mxGeometry x="980" y="740" width="40" height="20" as="geometry" />
        </mxCell>
        <mxCell id="LDY9kuMzX5d0ZNy2fUMn-153" value="0..1" style="text;html=1;align=center;verticalAlign=middle;resizable=0;points=[];autosize=1;strokeColor=none;fillColor=none;" vertex="1" parent="1">
          <mxGeometry x="1040" y="690" width="40" height="20" as="geometry" />
        </mxCell>
        <mxCell id="LDY9kuMzX5d0ZNy2fUMn-154" value="1" style="text;html=1;align=center;verticalAlign=middle;resizable=0;points=[];autosize=1;strokeColor=none;fillColor=none;" vertex="1" parent="1">
          <mxGeometry x="1030" y="790" width="20" height="20" as="geometry" />
        </mxCell>
        <mxCell id="LDY9kuMzX5d0ZNy2fUMn-155" value="1" style="text;html=1;align=center;verticalAlign=middle;resizable=0;points=[];autosize=1;strokeColor=none;fillColor=none;" vertex="1" parent="1">
          <mxGeometry x="1250" y="720" width="20" height="20" as="geometry" />
        </mxCell>
        <mxCell id="LDY9kuMzX5d0ZNy2fUMn-158" value="" style="endArrow=none;html=1;rounded=0;" edge="1" parent="1">
          <mxGeometry relative="1" as="geometry">
            <mxPoint x="881" y="589" as="sourcePoint" />
            <mxPoint x="920" y="613" as="targetPoint" />
            <Array as="points">
              <mxPoint x="881" y="598" />
              <mxPoint x="891" y="609" />
              <mxPoint x="910" y="613" />
            </Array>
          </mxGeometry>
        </mxCell>
        <mxCell id="LDY9kuMzX5d0ZNy2fUMn-160" value="" style="endArrow=none;html=1;rounded=0;exitX=1.029;exitY=0.269;exitDx=0;exitDy=0;exitPerimeter=0;" edge="1" parent="1" source="GUA9GLIF289MP995d6Cd-321">
          <mxGeometry relative="1" as="geometry">
            <mxPoint x="1027" y="603" as="sourcePoint" />
            <mxPoint x="1063" y="594" as="targetPoint" />
            <Array as="points">
              <mxPoint x="1037" y="613.5" />
              <mxPoint x="1053" y="614" />
              <mxPoint x="1063" y="603" />
              <mxPoint x="1063" y="594" />
            </Array>
          </mxGeometry>
        </mxCell>
        <mxCell id="LDY9kuMzX5d0ZNy2fUMn-163" value="" style="endArrow=none;html=1;rounded=0;" edge="1" parent="1">
          <mxGeometry relative="1" as="geometry">
            <mxPoint x="1040" y="908" as="sourcePoint" />
            <mxPoint x="1066" y="888" as="targetPoint" />
            <Array as="points">
              <mxPoint x="1030" y="908" />
              <mxPoint x="1056" y="908" />
              <mxPoint x="1066" y="897" />
              <mxPoint x="1066" y="888" />
              <mxPoint x="1056" y="880" />
            </Array>
          </mxGeometry>
        </mxCell>
        <mxCell id="LDY9kuMzX5d0ZNy2fUMn-164" value="" style="verticalLabelPosition=bottom;verticalAlign=top;html=1;shape=mxgraph.flowchart.on-page_reference;" vertex="1" parent="1">
          <mxGeometry x="963.5" y="571.5" width="31" height="28" as="geometry" />
        </mxCell>
        <mxCell id="LDY9kuMzX5d0ZNy2fUMn-165" value="p" style="text;html=1;strokeColor=none;fillColor=none;align=center;verticalAlign=middle;whiteSpace=wrap;rounded=0;" vertex="1" parent="1">
          <mxGeometry x="969.75" y="553.5" width="30.25" height="18" as="geometry" />
        </mxCell>
        <mxCell id="LDY9kuMzX5d0ZNy2fUMn-173" value="" style="edgeStyle=orthogonalEdgeStyle;rounded=0;orthogonalLoop=1;jettySize=auto;html=1;" edge="1" parent="1" source="LDY9kuMzX5d0ZNy2fUMn-166" target="GUA9GLIF289MP995d6Cd-321">
          <mxGeometry relative="1" as="geometry" />
        </mxCell>
        <mxCell id="LDY9kuMzX5d0ZNy2fUMn-166" value="o" style="text;html=1;strokeColor=none;fillColor=none;align=center;verticalAlign=middle;whiteSpace=wrap;rounded=0;" vertex="1" parent="1">
          <mxGeometry x="969.75" y="578" width="18.25" height="15" as="geometry" />
        </mxCell>
        <mxCell id="LDY9kuMzX5d0ZNy2fUMn-169" style="vsdxID=31;rotation=90;fillColor=none;gradientColor=none;strokeColor=none;strokeWidth=2;spacingTop=-3;spacingBottom=-3;spacingLeft=-3;spacingRight=-3;labelBackgroundColor=none;rounded=1;html=1;whiteSpace=wrap;" vertex="1" parent="1">
          <mxGeometry x="976.72" y="548" width="15.5" height="17.94" as="geometry" />
        </mxCell>
        <mxCell id="LDY9kuMzX5d0ZNy2fUMn-170" style="vsdxID=32;rotation=90;fillColor=#FFFFFF;gradientColor=none;shape=stencil(vVTbcoQgDP0aHs1w8cbzdvcH+gVMZZWpFQdpd9uvLxp1xF6ffCM5JwknIRBxGhrVa8Lp4J191jdT+YaIB8K56RrtjA8nIs5EnK7W6drZ165Cu1eByenk0RXGsJHNqXJPj+ZDo4+CYEWGAEa+2Lex4n2OAcoRfUdHRifzguSQa6wykznQHMluYQso5+xrQhkn5AueqLsZEme98sZ28/UQa5WrdRKKJddW1RE03LTuN262vV5ruo0WWQKLS+eQ/6wmhYLFalhQKPNIjpRA0+8adIQeCez/w0kh3cthGbAilrNvUXHYdL48jOLX6VDIyp2cbG3Hylmmdfhs/tibcJg2dDJwubfYfpuDC38Ccf4E);strokeColor=#5e5e5e;strokeWidth=2;spacingTop=-3;spacingBottom=-3;spacingLeft=-3;spacingRight=-3;labelBackgroundColor=none;rounded=1;html=1;whiteSpace=wrap;" vertex="1" parent="LDY9kuMzX5d0ZNy2fUMn-169">
          <mxGeometry x="-5.32" y="16.94" width="15.38" height="1" as="geometry" />
        </mxCell>
        <mxCell id="LDY9kuMzX5d0ZNy2fUMn-174" value="" style="verticalLabelPosition=bottom;verticalAlign=top;html=1;shape=mxgraph.flowchart.on-page_reference;" vertex="1" parent="1">
          <mxGeometry x="963.5" y="873" width="31" height="28" as="geometry" />
        </mxCell>
        <mxCell id="LDY9kuMzX5d0ZNy2fUMn-175" value="d" style="text;html=1;align=center;verticalAlign=middle;resizable=0;points=[];autosize=1;strokeColor=none;fillColor=none;" vertex="1" parent="1">
          <mxGeometry x="968" y="877" width="20" height="20" as="geometry" />
        </mxCell>
        <mxCell id="LDY9kuMzX5d0ZNy2fUMn-176" value="p" style="text;html=1;align=center;verticalAlign=middle;resizable=0;points=[];autosize=1;strokeColor=none;fillColor=none;" vertex="1" parent="1">
          <mxGeometry x="990" y="860" width="20" height="20" as="geometry" />
        </mxCell>
        <mxCell id="LDY9kuMzX5d0ZNy2fUMn-178" style="vsdxID=87;rotation=90;fillColor=none;gradientColor=none;strokeColor=none;strokeWidth=2;spacingTop=-3;spacingBottom=-3;spacingLeft=-3;spacingRight=-3;labelBackgroundColor=none;rounded=1;html=1;whiteSpace=wrap;" vertex="1" parent="1">
          <mxGeometry x="976.5" y="850" width="14" height="1" as="geometry" />
        </mxCell>
        <mxCell id="LDY9kuMzX5d0ZNy2fUMn-179" style="vsdxID=88;rotation=90;fillColor=#FFFFFF;gradientColor=none;shape=stencil(vVTbcoQgDP0aHs1w8cbzdvcH+gVMZZWpFQdpd9uvLxp1xF6ffCM5JwknIRBxGhrVa8Lp4J191jdT+YaIB8K56RrtjA8nIs5EnK7W6drZ165Cu1eByenk0RXGsJHNqXJPj+ZDo4+CYEWGAEa+2Lex4n2OAcoRfUdHRifzguSQa6wykznQHMluYQso5+xrQhkn5AueqLsZEme98sZ28/UQa5WrdRKKJddW1RE03LTuN262vV5ruo0WWQKLS+eQ/6wmhYLFalhQKPNIjpRA0+8adIQeCez/w0kh3cthGbAilrNvUXHYdL48jOLX6VDIyp2cbG3Hylmmdfhs/tibcJg2dDJwubfYfpuDC38Ccf4E);strokeColor=#5e5e5e;strokeWidth=2;spacingTop=-3;spacingBottom=-3;spacingLeft=-3;spacingRight=-3;labelBackgroundColor=none;rounded=1;html=1;whiteSpace=wrap;" vertex="1" parent="LDY9kuMzX5d0ZNy2fUMn-178">
          <mxGeometry x="-4.857142857142857" y="18" width="14" height="1" as="geometry" />
        </mxCell>
        <mxCell id="LDY9kuMzX5d0ZNy2fUMn-180" value="1..1" style="text;html=1;align=center;verticalAlign=middle;resizable=0;points=[];autosize=1;strokeColor=none;fillColor=none;" vertex="1" parent="1">
          <mxGeometry x="1320" y="360" width="40" height="20" as="geometry" />
        </mxCell>
        <mxCell id="LDY9kuMzX5d0ZNy2fUMn-181" value="0..1" style="text;html=1;align=center;verticalAlign=middle;resizable=0;points=[];autosize=1;strokeColor=none;fillColor=none;" vertex="1" parent="1">
          <mxGeometry x="1500" y="370" width="40" height="20" as="geometry" />
        </mxCell>
      </root>
    </mxGraphModel>
  </diagram>
</mxfile>
